<svg width="24" height="24" viewBox="0 0 24 24" fill="none" xmlns="http://www.w3.org/2000/svg">
<path fill-rule="evenodd" clip-rule="evenodd" d="M6.3852 17.25C4.034 17.25 1.91967 18.6815 1.04646 20.8645L0.852233 21.3501C0.392428 22.4996 1.23901 23.75 2.47707 23.75H21.523C22.7611 23.75 23.6076 22.4996 23.1478 21.3501L22.9536 20.8645C22.0804 18.6815 19.9661 17.25 17.6149 17.25H6.3852Z" fill="#2196F3"/>
<path d="M17.7065 17.2507C17.676 17.2502 17.6455 17.25 17.6149 17.25H6.3852C6.35461 17.25 6.32406 17.2502 6.29355 17.2507C6.19663 17.5607 6.26412 18.3248 6.46969 18.5303L9.46969 21.5303C9.62858 21.6892 9.85032 21.7685 10.0739 21.7464C10.2975 21.7242 10.4994 21.603 10.6241 21.416L11.25 20.4771V23.75H12.75V20.4771L13.376 21.416C13.5006 21.603 13.7025 21.7242 13.9261 21.7464C14.1497 21.7685 14.3715 21.6892 14.5304 21.5303L17.5304 18.5303C17.7359 18.3248 17.8034 17.5607 17.7065 17.2507Z" fill="#59B4FD"/>
<path fill-rule="evenodd" clip-rule="evenodd" d="M5.99517 6.6416C5.58096 6.6416 5.24517 6.97739 5.24517 7.3916C5.24517 7.81045 5.2811 8.25343 5.34895 8.70794C4.99023 9.06645 4.75 9.55065 4.75 10.1107C4.75 11.1207 5.49787 11.8519 6.38067 12.1135C6.90272 13.2481 7.60199 14.3328 8.46273 15.1683C9.41699 16.0946 10.6125 16.7522 12 16.7522C13.3875 16.7522 14.583 16.0946 15.5373 15.1683C16.398 14.3328 17.0973 13.2481 17.6193 12.1135C18.5021 11.8519 19.25 11.1207 19.25 10.1107C19.25 9.55065 19.0098 9.06645 18.651 8.70794C18.7189 8.25343 18.7548 7.81045 18.7548 7.3916C18.7548 6.97739 18.419 6.6416 18.0048 6.6416H5.99517Z" fill="#FFDBA6"/>
<path fill-rule="evenodd" clip-rule="evenodd" d="M11 0.25C7.82436 0.25 5.25 2.82436 5.25 6V7C5.25 7.41421 5.58579 7.75 6 7.75H18C18.4142 7.75 18.75 7.41421 18.75 7V6C18.75 2.82436 16.1756 0.25 13 0.25H11Z" fill="#FFD24B"/>
<path d="M5 6.25C4.58579 6.25 4.25 6.58579 4.25 7V9.5C4.25 9.91421 4.58579 10.25 5 10.25H19C19.4142 10.25 19.75 9.91421 19.75 9.5V7C19.75 6.58579 19.4142 6.25 19 6.25H5Z" fill="#FFC107"/>
<path fill-rule="evenodd" clip-rule="evenodd" d="M12.416 1.87595C12.7607 2.10571 12.8538 2.57137 12.624 2.91601L12.4014 3.24999H13C13.2766 3.24999 13.5307 3.40223 13.6613 3.64609C13.7918 3.88996 13.7775 4.18587 13.624 4.41601L12.624 5.91601C12.3943 6.26066 11.9286 6.35379 11.584 6.12403C11.2393 5.89426 11.1462 5.42861 11.376 5.08396L11.5986 4.74999H11C10.7234 4.74999 10.4693 4.59775 10.3387 4.35388C10.2082 4.11001 10.2225 3.81411 10.376 3.58396L11.376 2.08396C11.6057 1.73932 12.0714 1.64619 12.416 1.87595Z" fill="#607D8B"/>
<path fill-rule="evenodd" clip-rule="evenodd" d="M1.04646 20.8645C1.91967 18.6815 4.034 17.25 6.3852 17.25H17.6149C19.9661 17.25 22.0804 18.6815 22.9536 20.8645L23.1478 21.3501C23.6076 22.4996 22.7611 23.75 21.523 23.75H2.47707C1.23901 23.75 0.392428 22.4996 0.852233 21.3501L1.04646 20.8645ZM6.3852 18.75C4.64736 18.75 3.08459 19.808 2.43917 21.4216L2.24495 21.9072C2.17926 22.0714 2.3002 22.25 2.47707 22.25H21.523C21.6999 22.25 21.8208 22.0714 21.7551 21.9072L21.5609 21.4216C20.9155 19.808 19.3527 18.75 17.6149 18.75H6.3852Z" fill="black"/>
<path fill-rule="evenodd" clip-rule="evenodd" d="M6.30711 17.713C6.4232 17.4327 6.69668 17.25 7.00002 17.25H12C12.2766 17.25 12.5308 17.4022 12.6613 17.6461C12.7918 17.89 12.7775 18.1859 12.6241 18.416L10.6241 21.416C10.4994 21.603 10.2975 21.7242 10.0739 21.7464C9.85032 21.7685 9.62858 21.6892 9.46969 21.5303L6.46969 18.5303C6.25519 18.3158 6.19103 17.9932 6.30711 17.713ZM8.81068 18.75L9.88345 19.8228L10.5986 18.75H8.81068Z" fill="black"/>
<path fill-rule="evenodd" clip-rule="evenodd" d="M11.3387 17.6461C11.4693 17.4022 11.7234 17.25 12 17.25H17C17.3033 17.25 17.5768 17.4327 17.6929 17.713C17.809 17.9932 17.7448 18.3158 17.5303 18.5303L14.5303 21.5303C14.3714 21.6892 14.1497 21.7685 13.9261 21.7464C13.7025 21.7242 13.5006 21.603 13.376 21.416L11.376 18.416C11.2225 18.1859 11.2082 17.89 11.3387 17.6461ZM13.4014 18.75L14.1166 19.8228L15.1893 18.75H13.4014Z" fill="black"/>
<path fill-rule="evenodd" clip-rule="evenodd" d="M12 17.25C12.4142 17.25 12.75 17.5858 12.75 18V23C12.75 23.4142 12.4142 23.75 12 23.75C11.5858 23.75 11.25 23.4142 11.25 23V18C11.25 17.5858 11.5858 17.25 12 17.25Z" fill="black"/>
<path fill-rule="evenodd" clip-rule="evenodd" d="M6.80058 9.1221C7.01792 9.47471 6.90827 9.93675 6.55566 10.1541C6.46127 10.2123 6.37317 10.2569 6.29598 10.2919C6.38372 10.4735 6.60198 10.6703 6.99318 10.7133C7.26307 10.743 7.49585 10.9162 7.60178 11.1662C8.08275 12.3014 8.73705 13.3443 9.5075 14.0922C10.2757 14.8378 11.1163 15.2524 12 15.2524C12.8837 15.2524 13.7243 14.8378 14.4925 14.0922C15.2629 13.3443 15.9173 12.3014 16.3982 11.1662C16.5042 10.9162 16.7369 10.743 17.0068 10.7133C17.398 10.6703 17.6163 10.4735 17.704 10.2919C17.6268 10.2569 17.5387 10.2123 17.4443 10.1541C17.0917 9.93675 16.9821 9.47471 17.1994 9.1221C17.4168 8.76949 17.8788 8.65984 18.2314 8.87719C18.28 8.90711 18.3272 8.92875 18.3889 8.95338C18.3941 8.95546 18.4019 8.95844 18.4117 8.9622C18.466 8.98304 18.583 9.02794 18.6734 9.07633C18.8152 9.15219 18.9928 9.28159 19.1147 9.51007C19.2265 9.71949 19.25 9.93609 19.25 10.1109C19.25 11.1209 18.5021 11.8522 17.6193 12.1137C17.0973 13.2483 16.398 14.333 15.5373 15.1685C14.583 16.0948 13.3875 16.7524 12 16.7524C10.6125 16.7524 9.41699 16.0948 8.46273 15.1685C7.60199 14.333 6.90272 13.2483 6.38067 12.1137C5.49787 11.8522 4.75 11.1209 4.75 10.1109C4.75 9.93609 4.77355 9.71949 4.8853 9.51008C5.00722 9.2816 5.18484 9.1522 5.32662 9.07633C5.41705 9.02794 5.53403 8.98304 5.58833 8.9622C5.59814 8.95843 5.6059 8.95545 5.61109 8.95338C5.67276 8.92875 5.72004 8.9071 5.76858 8.87718C6.12119 8.65984 6.58323 8.76949 6.80058 9.1221ZM17.7494 10.0931C17.7494 10.0931 17.7495 10.0941 17.7497 10.0963L17.7494 10.0931ZM6.25062 10.0931C6.25065 10.0931 6.25059 10.0942 6.25034 10.0963L6.25062 10.0931Z" fill="black"/>
<path fill-rule="evenodd" clip-rule="evenodd" d="M4.25 7C4.25 6.58579 4.58579 6.25 5 6.25H19C19.4142 6.25 19.75 6.58579 19.75 7V9.5C19.75 9.91421 19.4142 10.25 19 10.25H5C4.58579 10.25 4.25 9.91421 4.25 9.5V7ZM5.75 7.75V8.75H18.25V7.75H5.75Z" fill="black"/>
<path fill-rule="evenodd" clip-rule="evenodd" d="M5.25 6C5.25 2.82436 7.82436 0.25 11 0.25H13C16.1756 0.25 18.75 2.82436 18.75 6V7C18.75 7.41421 18.4142 7.75 18 7.75H6C5.58579 7.75 5.25 7.41421 5.25 7V6ZM11 1.75C8.65279 1.75 6.75 3.65279 6.75 6V6.25H17.25V6C17.25 3.65279 15.3472 1.75 13 1.75H11Z" fill="black"/>
<path fill-rule="evenodd" clip-rule="evenodd" d="M12.416 1.87595C12.7607 2.10571 12.8538 2.57137 12.624 2.91601L12.4014 3.24999H13C13.2766 3.24999 13.5307 3.40223 13.6613 3.64609C13.7918 3.88996 13.7775 4.18587 13.624 4.41601L12.624 5.91601C12.3943 6.26066 11.9286 6.35379 11.584 6.12403C11.2393 5.89426 11.1462 5.42861 11.376 5.08396L11.5986 4.74999H11C10.7234 4.74999 10.4693 4.59775 10.3387 4.35388C10.2082 4.11001 10.2225 3.81411 10.376 3.58396L11.376 2.08396C11.6057 1.73932 12.0714 1.64619 12.416 1.87595Z" fill="black"/>
</svg>
