<svg width="24" height="24" viewBox="0 0 24 24" fill="none" xmlns="http://www.w3.org/2000/svg">
<path fill-rule="evenodd" clip-rule="evenodd" d="M6.3852 17.25C4.034 17.25 1.91967 18.6815 1.04646 20.8645L0.852233 21.3501C0.392428 22.4996 1.23901 23.75 2.47707 23.75H21.523C22.7611 23.75 23.6076 22.4996 23.1478 21.3501L22.9536 20.8645C22.0804 18.6815 19.9661 17.25 17.6149 17.25H15H6.3852Z" fill="#2196F3"/>
<path fill-rule="evenodd" clip-rule="evenodd" d="M12 0.75C7.98685 0.75 5.24517 3.73262 5.24517 7.39143C5.24517 7.81028 5.2811 8.25326 5.34895 8.70777C4.99023 9.06628 4.75 9.55048 4.75 10.1105C4.75 11.1205 5.49787 11.8518 6.38068 12.1133C6.97061 13.3955 7.78906 14.6185 8.8148 15.4879C8.95029 15.6027 9.12212 15.6657 9.29972 15.6657L12 17L14.7003 15.6657C14.8779 15.6657 15.0497 15.6027 15.1852 15.4879C16.2109 14.6185 17.0294 13.3955 17.6193 12.1133C18.5021 11.8518 19.25 11.1205 19.25 10.1105C19.25 9.55047 19.0098 9.06628 18.651 8.70777C18.7189 8.25326 18.7548 7.81028 18.7548 7.39143C18.7548 3.73262 16.0132 0.75 12 0.75Z" fill="#FFDBA6"/>
<path fill-rule="evenodd" clip-rule="evenodd" d="M6 17.25C5.58579 17.25 5.25 17.5858 5.25 18V23C5.25 23.4142 5.58579 23.75 6 23.75H18C18.4142 23.75 18.75 23.4142 18.75 23V18C18.75 17.5858 18.4142 17.25 18 17.25H6Z" fill="#E5E6E8"/>
<path fill-rule="evenodd" clip-rule="evenodd" d="M18.6884 8.43271C18.7321 8.07454 18.7549 7.72532 18.7549 7.39143C18.7549 3.73262 16.0132 0.75 12.0001 0.75C7.98691 0.75 5.24524 3.73262 5.24524 7.39143C5.24524 7.72532 5.26807 8.07454 5.3117 8.43271L6.83548 7.67082C6.88272 7.6472 6.92734 7.61865 6.96859 7.58565L8.61896 6.26535C8.95006 6.00047 9.39286 5.9215 9.79511 6.05559L11.7629 6.71151C11.9168 6.76283 12.0833 6.76283 12.2372 6.71151L14.205 6.05559C14.6073 5.9215 15.0501 6.00047 15.3812 6.26535L17.0315 7.58565C17.0728 7.61865 17.1174 7.6472 17.1647 7.67082L18.6884 8.43271Z" fill="#486472"/>
<path fill-rule="evenodd" clip-rule="evenodd" d="M15.7418 17.25H8.25818C8.33922 18.4821 9.01536 19.5508 9.99999 20.1727V23.75H14V20.1727C14.9846 19.5508 15.6608 18.4821 15.7418 17.25Z" fill="#90A7B2"/>
<path d="M11.75 14.1709C11.75 13.9274 11.6318 13.6991 11.433 13.5586C11.2343 13.418 10.9796 13.3826 10.7501 13.4638C9.29459 13.9782 8.25 15.3663 8.25 17.0002C8.25 18.3369 8.9494 19.5091 10 20.1727V23.0002C10 23.4144 10.3358 23.7502 10.75 23.7502H13.25C13.6642 23.7502 14 23.4144 14 23.0002V20.1727C15.0506 19.5091 15.75 18.3369 15.75 17.0002C15.75 15.3663 14.7054 13.9782 13.2499 13.4638C13.0204 13.3826 12.7657 13.418 12.567 13.5586C12.3682 13.6991 12.25 13.9274 12.25 14.1709V16.2502H11.75V14.1709Z" fill="#90A7B2"/>
<path fill-rule="evenodd" clip-rule="evenodd" d="M5.24517 7.39143C5.24517 3.73262 7.98685 0.75 12 0.75C16.0132 0.75 18.7548 3.73262 18.7548 7.39143C18.7548 7.81028 18.7189 8.25326 18.651 8.70777C19.0098 9.06628 19.25 9.55047 19.25 10.1105C19.25 11.1205 18.5021 11.8518 17.6193 12.1133C16.976 13.5115 16.0585 14.8444 14.8931 15.7214C14.5621 15.9705 14.0919 15.9041 13.8429 15.5731C13.5938 15.2421 13.6602 14.7719 13.9912 14.5229C14.9738 13.7834 15.8118 12.5499 16.3982 11.1658C16.5042 10.9158 16.7369 10.7426 17.0068 10.7129C17.5376 10.6546 17.75 10.3132 17.75 10.1105C17.75 9.96998 17.6691 9.79224 17.4443 9.65371C17.1792 9.49028 17.0427 9.17999 17.1013 8.87409C17.2037 8.33941 17.2548 7.83688 17.2548 7.39143C17.2548 4.54275 15.1665 2.25 12 2.25C8.83346 2.25 6.74517 4.54275 6.74517 7.39143C6.74517 7.83688 6.79625 8.3394 6.89872 8.87409C6.95734 9.17998 6.8208 9.49027 6.55566 9.6537C6.33092 9.79223 6.25 9.96997 6.25 10.1105C6.25 10.3132 6.46243 10.6546 6.99318 10.7129C7.26307 10.7426 7.49585 10.9158 7.60178 11.1658C8.18821 12.5499 9.02619 13.7834 10.0088 14.5229C10.3398 14.7719 10.4062 15.2421 10.1572 15.5731C9.90809 15.9041 9.43788 15.9705 9.10691 15.7214C7.94145 14.8444 7.02401 13.5115 6.38068 12.1133C5.49787 11.8518 4.75 11.1205 4.75 10.1105C4.75 9.55048 4.99023 9.06628 5.34895 8.70777C5.2811 8.25326 5.24517 7.81028 5.24517 7.39143Z" fill="black"/>
<path fill-rule="evenodd" clip-rule="evenodd" d="M6.3852 18.75C4.64736 18.75 3.08459 19.808 2.43917 21.4216L2.24495 21.9072C2.17926 22.0714 2.3002 22.25 2.47707 22.25H21.523C21.6999 22.25 21.8208 22.0714 21.7551 21.9072L21.5609 21.4216C20.9155 19.808 19.3527 18.75 17.6149 18.75H15C14.5858 18.75 14.25 18.4142 14.25 18C14.25 17.5858 14.5858 17.25 15 17.25H17.6149C19.9661 17.25 22.0804 18.6815 22.9536 20.8645L23.1478 21.3501C23.6076 22.4996 22.7611 23.75 21.523 23.75H2.47707C1.23901 23.75 0.392428 22.4996 0.852233 21.3501L1.04646 20.8645C1.91967 18.6815 4.034 17.25 6.3852 17.25H9.00003C9.41425 17.25 9.75003 17.5858 9.75003 18C9.75003 18.4142 9.41425 18.75 9.00003 18.75H6.3852Z" fill="black"/>
<path fill-rule="evenodd" clip-rule="evenodd" d="M11.433 13.5585C11.6318 13.6991 11.75 13.9274 11.75 14.1709V16.2502H12.25V14.1709C12.25 13.9274 12.3682 13.6991 12.567 13.5585C12.7657 13.418 13.0204 13.3826 13.2499 13.4638C14.7054 13.9782 15.75 15.3662 15.75 17.0002C15.75 18.3369 15.0506 19.5091 14 20.1727V23.0002C14 23.4144 13.6642 23.7502 13.25 23.7502H10.75C10.3358 23.7502 10 23.4144 10 23.0002V20.1727C8.9494 19.5091 8.25 18.3369 8.25 17.0002C8.25 15.3662 9.29459 13.9782 10.7501 13.4638C10.9796 13.3826 11.2343 13.418 11.433 13.5585ZM10.25 15.5857C9.93716 15.9725 9.75 16.4648 9.75 17.0002C9.75 17.9071 10.2866 18.6903 11.0628 19.0465C11.3292 19.1688 11.5 19.4351 11.5 19.7282V22.2502H12.5V19.7282C12.5 19.4351 12.6708 19.1688 12.9372 19.0465C13.7134 18.6903 14.25 17.9071 14.25 17.0002C14.25 16.4648 14.0628 15.9725 13.75 15.5857V17.0002C13.75 17.4144 13.4142 17.7502 13 17.7502H11C10.5858 17.7502 10.25 17.4144 10.25 17.0002V15.5857Z" fill="black"/>
<path fill-rule="evenodd" clip-rule="evenodd" d="M6 17.25C6.41421 17.25 6.75 17.5858 6.75 18V23C6.75 23.4142 6.41421 23.75 6 23.75C5.58579 23.75 5.25 23.4142 5.25 23V18C5.25 17.5858 5.58579 17.25 6 17.25Z" fill="black"/>
<path fill-rule="evenodd" clip-rule="evenodd" d="M18 17.25C18.4142 17.25 18.75 17.5858 18.75 18V23C18.75 23.4142 18.4142 23.75 18 23.75C17.5858 23.75 17.25 23.4142 17.25 23V18C17.25 17.5858 17.5858 17.25 18 17.25Z" fill="black"/>
<path fill-rule="evenodd" clip-rule="evenodd" d="M13.7306 4.63256C14.6156 4.33757 15.5898 4.51132 16.3182 5.09405L17.9685 6.41435C18.292 6.67311 18.3444 7.14507 18.0857 7.46852C17.8269 7.79197 17.355 7.84441 17.0315 7.58565L15.3811 6.26535C15.05 6.00047 14.6072 5.9215 14.205 6.05559L12.2372 6.71151C12.0832 6.76283 11.9168 6.76283 11.7629 6.71151L9.79507 6.05559C9.39282 5.9215 8.95002 6.00047 8.61892 6.26535L6.96855 7.58565C6.6451 7.84441 6.17313 7.79197 5.91438 7.46852C5.65562 7.14507 5.70806 6.67311 6.03151 6.41435L7.68188 5.09405C8.4103 4.51132 9.38446 4.33757 10.2694 4.63256L12 5.20943L13.7306 4.63256Z" fill="black"/>
</svg>
