<svg xmlns="http://www.w3.org/2000/svg" width="48" height="48" fill="none" viewBox="0 0 24 24"><path fill="#FFDBA6" fill-rule="evenodd" d="M5.245 7a.75.75 0 0 1 .75-.75h10.37c1.13 0 2.207.835 2.248 2.03.38.361.637.86.637 1.44 0 1.01-.748 1.74-1.63 2.002-.278.604-.605 1.19-.978 1.732a9.61 9.61 0 0 1-.404.546H16a1.75 1.75 0 0 0-1.75 1.75v.002a4.547 4.547 0 0 1-2.25.609c-1.978 0-3.555-1.326-4.642-2.907-.373-.542-.7-1.128-.977-1.732-.883-.262-1.631-.993-1.631-2.003 0-.56.24-1.044.599-1.403A8.971 8.971 0 0 1 5.245 7Z" clip-rule="evenodd"/><path fill="#FAFAFA" fill-rule="evenodd" d="M17.468 12.039c-.243.492-.519.969-.826 1.415a9.612 9.612 0 0 1-.404.546H16a1.75 1.75 0 0 0-1.75 1.75v.002a4.547 4.547 0 0 1-2.25.609c-1.978 0-3.555-1.326-4.642-2.907a11.454 11.454 0 0 1-.826-1.415l.518-.39a.74.74 0 0 1 .091-.058l2.588-1.408a4.75 4.75 0 0 1 4.542 0l2.588 1.408a.736.736 0 0 1 .091.059l.518.389Z" clip-rule="evenodd"/><path fill="#2196F3" fill-rule="evenodd" d="M14.25 17v1c0 .09.007.179.02.265a1.75 1.75 0 0 0-1.496 1.447l-.5 3a1.75 1.75 0 0 0 .049.788H2.477a1.75 1.75 0 0 1-1.625-2.4l.194-.486A5.75 5.75 0 0 1 6.386 17h7.864Z" clip-rule="evenodd"/><path fill="#FFDBA6" fill-rule="evenodd" d="m12.73 19.977.044-.265a1.75 1.75 0 0 1 1.496-1.447 1.77 1.77 0 0 1-.02-.265v-1H6.94l1.53 1.53c.02.02.04.038.061.056l2.5 2a.75.75 0 0 0 .938 0l.76-.61Z" clip-rule="evenodd"/><path fill="#FFC107" fill-rule="evenodd" d="M10.75 23.5v-3.14l-2.218-1.774a.748.748 0 0 1-.062-.056L6.94 17h2.12l.441.44 2 1.6 1.998-1.6.44-.44h.311v1c0 .09.007.179.02.265a1.75 1.75 0 0 0-1.496 1.447l-.044.265-.48.383v3.14h-1.5Z" clip-rule="evenodd"/><path fill="#486472" d="M14.5 19.25a.75.75 0 0 0-.74.627l-.5 3a.75.75 0 0 0 .74.873h9a.75.75 0 0 0 .74-.873l-.5-3a.75.75 0 0 0-.74-.627h-8Z"/><path fill="#607D8B" d="M16 15a.75.75 0 0 0-.75.75V18c0 .414.336.75.75.75h5a.75.75 0 0 0 .75-.75v-2.25A.75.75 0 0 0 21 15h-5Z"/><path fill="#ECEFF1" fill-rule="evenodd" d="M18.5 17.25a.75.75 0 0 1 .75.75v2a.75.75 0 0 1-1.5 0v-2a.75.75 0 0 1 .75-.75Z" clip-rule="evenodd"/><path fill="#486472" d="M5.69.908a1.75 1.75 0 0 0-2.44 1.609v.272c0 .938.278 1.854.798 2.635l1.01 1.516a.75.75 0 0 0 .532.329l3.825.475a.75.75 0 0 0 .092.006h3.086a2.75 2.75 0 0 0 2.069-.939l.09-.104.083.096a2.75 2.75 0 0 0 2.077.947h.529a.748.748 0 0 0 1.309-.5v-.21a4.803 4.803 0 0 0-4.778-5.29H8.321c-.44 0-.876-.09-1.28-.263L5.689.908Z"/><path fill="#000" fill-rule="evenodd" d="M6.385 18.5a4.25 4.25 0 0 0-3.946 2.672l-.194.485a.25.25 0 0 0 .232.343H12.5a.75.75 0 0 1 0 1.5H2.477a1.75 1.75 0 0 1-1.625-2.4l.194-.486A5.75 5.75 0 0 1 6.386 17H14.5a.75.75 0 0 1 0 1.5H6.385Z" clip-rule="evenodd"/><path fill="#000" fill-rule="evenodd" d="M13.76 19.877a.75.75 0 0 1 .74-.627h8a.75.75 0 0 1 .74.627l.5 3a.75.75 0 0 1-.74.873h-9a.75.75 0 0 1-.74-.873l.5-3Zm1.375.873-.25 1.5h7.23l-.25-1.5h-6.73ZM15.25 15.75A.75.75 0 0 1 16 15h5a.75.75 0 0 1 .75.75V18a.75.75 0 0 1-.75.75h-5a.75.75 0 0 1-.75-.75v-2.25Zm1.5.75v.75h3.5v-.75h-3.5Z" clip-rule="evenodd"/><path fill="#000" fill-rule="evenodd" d="M18.5 17.25a.75.75 0 0 1 .75.75v2a.75.75 0 0 1-1.5 0v-2a.75.75 0 0 1 .75-.75ZM5.995 6.25a.75.75 0 0 1 .75.75c0 .445.051.948.154 1.483a.75.75 0 0 1-.343.78c-.225.138-.306.316-.306.456 0 .203.212.544.743.603a.75.75 0 0 1 .609.452c.48 1.136 1.135 2.179 1.905 2.926.769.746 1.61 1.16 2.493 1.16.884 0 1.724-.414 2.492-1.16.77-.747 1.425-1.79 1.906-2.926a.75.75 0 0 1 .609-.452c.53-.059.743-.4.743-.603 0-.14-.08-.318-.306-.457a.75.75 0 0 1-.343-.78A7.99 7.99 0 0 0 17.255 7a.75.75 0 0 1 1.5 0c0 .419-.036.862-.104 1.316.359.359.599.843.599 1.403 0 1.01-.748 1.741-1.63 2.003-.523 1.135-1.222 2.22-2.083 3.055-.954.926-2.15 1.584-3.537 1.584s-2.583-.658-3.537-1.584c-.861-.836-1.56-1.92-2.082-3.055-.883-.262-1.631-.993-1.631-2.003 0-.56.24-1.044.599-1.403A8.971 8.971 0 0 1 5.245 7a.75.75 0 0 1 .75-.75Z" clip-rule="evenodd"/><path fill="#000" fill-rule="evenodd" d="M3.25 2.517A1.75 1.75 0 0 1 5.69.908l1.35.58c.405.173.84.262 1.281.262h5.651a4.802 4.802 0 0 1 4.773 5.333l-1.49-.166a3.302 3.302 0 0 0-3.283-3.667H8.321a4.75 4.75 0 0 1-1.871-.384l-1.352-.58a.25.25 0 0 0-.348.23v.273c0 .642.19 1.269.546 1.803l1.328 1.992a.75.75 0 0 1-1.248.832L4.048 5.424a4.75 4.75 0 0 1-.798-2.635v-.272Z" clip-rule="evenodd"/><path fill="#000" fill-rule="evenodd" d="M14.757 4.816a.75.75 0 0 1 .565.258l.646.745c.238.274.582.43.944.43H18a.75.75 0 0 1 0 1.5h-1.088a2.75 2.75 0 0 1-2.076-.946l-.083-.096-.091.104a2.75 2.75 0 0 1-2.07.939H9.508a.75.75 0 0 1-.093-.006L5.63 7.269a.75.75 0 0 1 .187-1.489l3.736.47h3.039c.36 0 .703-.156.94-.427l.658-.751a.75.75 0 0 1 .566-.256ZM8.414 17.532a.75.75 0 0 1 1.055-.118L11.5 19.04l2.031-1.625a.75.75 0 0 1 .938 1.172l-2.5 2a.75.75 0 0 1-.938 0l-2.5-2a.75.75 0 0 1-.117-1.054Z" clip-rule="evenodd"/><path fill="#000" fill-rule="evenodd" d="M11.5 19.25a.75.75 0 0 1 .75.75v2.5a.75.75 0 0 1-1.5 0V20a.75.75 0 0 1 .75-.75ZM13.554 11.5a3.25 3.25 0 0 0-3.108 0L7.86 12.91a.75.75 0 1 1-.718-1.318l2.588-1.408a4.75 4.75 0 0 1 4.542 0l2.588 1.408a.75.75 0 1 1-.718 1.318L13.554 11.5Z" clip-rule="evenodd"/></svg>