<?xml version="1.0" encoding="UTF-8"?><svg version="1.1" viewBox="0 0 24 24" xmlns="http://www.w3.org/2000/svg" xmlns:xlink="http://www.w3.org/1999/xlink"><!--Generated by IJSVG (https://github.com/iconjar/IJSVG)--><g fill="#607D8B" fill-rule="evenodd"><path d="M6.3852,17.25c-2.3512,0 -4.46553,1.4315 -5.33874,3.6145l-0.194227,0.4856c-0.459805,1.1495 0.386777,2.3999 1.62484,2.3999h19.0459c1.2381,0 2.0846,-1.2504 1.6248,-2.3999l-0.1942,-0.4856c-0.8732,-2.183 -2.9875,-3.6145 -5.3387,-3.6145h-11.2297Z"></path><path fill="#FFDBA6" d="M12.2775,4.30323c-0.195,-0.07769 -0.4137,-0.07006 -0.6029,0.02104l-6.00482,2.8916c-0.25958,0.12499 -0.42461,0.38763 -0.42461,0.67573c0,0.3845 0.03675,0.59925 0.08761,0.83267c-0.34976,0.35682 -0.58278,0.83484 -0.58278,1.38643c0,1.01 0.74787,1.7412 1.63067,2.0028c0.52205,1.1346 1.22132,2.2193 2.08206,3.0548c0.95426,0.9263 2.14977,1.5839 3.53727,1.5839c1.3875,0 2.583,-0.6576 3.5373,-1.5839c0.8607,-0.8355 1.56,-1.9202 2.082,-3.0548c0.8828,-0.2616 1.6307,-0.9928 1.6307,-2.0028c0,-0.56005 -0.2402,-1.04425 -0.599,-1.40276c0.0679,-0.45451 0.1038,-0.89749 0.1038,-1.31634c0,-0.30708 -0.1872,-0.58314 -0.4725,-0.69677l-6.0048,-2.3916Z"></path><path d="M16.5,3.98999v-0.75c-0.2838,0 -0.5433,0.16022 -0.6705,0.41391c0,7e-05 0,0.00014 -0.0001,0.00021c0,9e-05 -0.0001,0.00018 -0.0001,0.00027v2e-05l-0.0009,0.00173l-0.0084,0.01626c-0.0082,0.0156 -0.0215,0.04053 -0.0398,0.07386c-0.0366,0.06668 -0.0935,0.1668 -0.1705,0.293c-0.1542,0.25276 -0.3878,0.60794 -0.7004,1.0075c-0.14,0.17889 -0.1913,0.41156 -0.1396,0.63273l1.0468,4.48112c0.0723,0.3094 0.3317,0.5397 0.6475,0.5748c0.3157,0.0351 0.6194,-0.1325 0.7579,-0.4185l1.4526,-2.99886l0.0005,-0.0011l0.0015,-0.00304l0.0084,-0.01762c0.0064,-0.01375 0.0145,-0.0315 0.0238,-0.05301c0.0186,-0.04294 0.0423,-0.10126 0.0679,-0.1729c0.0509,-0.14244 0.1107,-0.34231 0.1507,-0.58208c0.0793,-0.47603 0.0859,-1.14888 -0.2565,-1.83371c-0.3482,-0.69641 -0.8833,-1.05736 -1.3298,-1.23595c-0.2193,-0.08772 -0.4169,-0.13183 -0.5629,-0.15429c-0.0735,-0.01131 -0.1355,-0.01737 -0.1825,-0.02062c-0.0236,-0.00163 -0.0436,-0.00256 -0.0597,-0.00308l-0.021,-0.00052l-0.0082,-0.0001l-0.0036,-2e-05l-0.0016,-1e-05h-0.0007c-0.0004,0 -0.0008,0 -0.0008,0.75Z"></path><path fill="#FFDBA6" d="M8.00005,17.25c-0.32282,0 -0.60943,0.2066 -0.71151,0.5128c-0.10209,0.3063 0.00325,0.6435 0.26151,0.8372l2.79995,2.1c0.9778,0.7333 2.3223,0.7333 3.3,0l2.8,-2.1c0.2583,-0.1937 0.3636,-0.5309 0.2616,-0.8372c-0.1021,-0.3062 -0.3887,-0.5128 -0.7116,-0.5128h-7.99995Z"></path><path fill="#486472" d="M11.4479,0.75c-2.99613,0 -4.82453,1.87404 -5.86297,3.61595c-0.52078,0.87356 -0.86176,1.74055 -1.07257,2.38537c-0.10584,0.32374 -0.17997,0.5949 -0.22811,0.78748c-0.0241,0.09637 -0.04174,0.17331 -0.05364,0.22759c-0.00596,0.02715 -0.01047,0.04865 -0.01365,0.06411l-0.00376,0.01861l-0.00115,0.00581l-0.00039,0.00202l-0.00015,0.00079c-7e-05,0.00033 -0.00013,0.00063 0.73638,0.14227l-0.73651,-0.14164c-0.04717,0.24529 0.03087,0.49796 0.20815,0.67393c0.17727,0.17597 0.43051,0.25213 0.67544,0.20315l3.4963,-0.69926l-0.3142,0.62841c-0.12937,0.25874 -0.09841,0.56882 0.07958,0.79686c0.17799,0.22805 0.47126,0.3334 0.75368,0.27075l1.78147,-0.39522c1.9285,-0.42785 3.6664,-1.49296 4.9017,-3.04581c0.0949,-0.11932 0.1787,-0.2253 0.2451,-0.31018c0.3541,-0.45265 0.6204,-0.8569 0.7995,-1.15053c0.0897,-0.147 0.1579,-0.26681 0.2046,-0.35175c0.0233,-0.04249 0.0413,-0.07631 0.054,-0.10049l0.015,-0.02897l0.0045,-0.00885l0.0015,-0.00298l0.0006,-0.00113l0.0002,-0.00047l0.0001,-0.00021c0.0001,-0.0001 0.0001,-0.0002 -0.6707,-0.33561l0.6708,0.33541c0.0408,-0.08161 0.0664,-0.16999 0.0755,-0.26078l-0.7463,-0.07463c0.7463,0.07463 0.7463,0.07386 0.7464,0.07308l0.0002,-0.00161l0.0003,-0.00341l0.0007,-0.00759l0.0013,-0.01815c0.0009,-0.01341 0.0017,-0.02944 0.0023,-0.04791c0.0011,-0.0369 0.0011,-0.0838 -0.0017,-0.13929c-0.0055,-0.11076 -0.0223,-0.25735 -0.0649,-0.42765c-0.0861,-0.34443 -0.2757,-0.77678 -0.6721,-1.19403c-0.7949,-0.83671 -2.2883,-1.48344 -5.0125,-1.48344Z"></path><path fill="#000" d="M7.40004,17.55c0.24853,-0.3314 0.71863,-0.3985 1.05,-0.15l2.79996,2.1c0.4445,0.3333 1.0556,0.3333 1.5,0l2.8,-2.1c0.3314,-0.2485 0.8015,-0.1814 1.05,0.15c0.2486,0.3314 0.1814,0.8015 -0.15,1.05l-2.8,2.1c-0.9777,0.7333 -2.3222,0.7333 -3.3,0l-2.79996,-2.1c-0.33137,-0.2485 -0.39852,-0.7186 -0.15,-1.05Z"></path><path fill="#000" d="M1.04646,20.8645c0.87321,-2.183 2.98754,-3.6145 5.33874,-3.6145h11.2297c2.3512,0 4.4655,1.4315 5.3387,3.6145l0.1942,0.4856c0.4598,1.1495 -0.3867,2.3999 -1.6248,2.3999h-19.0459c-1.23806,0 -2.08464,-1.2504 -1.62484,-2.3999l0.194227,-0.4856Zm5.33874,-2.1145c-1.73784,0 -3.30061,1.058 -3.94603,2.6716l-0.19422,0.4856c-0.06569,0.1642 0.05525,0.3428 0.23212,0.3428h19.0459c0.1769,0 0.2978,-0.1786 0.2321,-0.3428l-0.1942,-0.4856c-0.6454,-1.6136 -2.2082,-2.6716 -3.946,-2.6716h-11.2297Z"></path><path fill="#000" d="M5.58493,4.36595c1.03844,-1.74191 2.86684,-3.61595 5.86297,-3.61595c2.7242,0 4.2176,0.64673 5.0125,1.48344c0.3964,0.41725 0.586,0.8496 0.6721,1.19403c0.0426,0.1703 0.0594,0.31689 0.0649,0.42765c0.0028,0.05549 0.0028,0.10239 0.0017,0.13929c-0.0006,0.01847 -0.0014,0.0345 -0.0023,0.04791l-0.0013,0.01815l-0.0007,0.00759l-0.0003,0.00341l-0.0002,0.00161c-0.0001,0.00078 -0.0001,0.00155 -0.7464,-0.07308c0.6708,0.33541 0.6708,0.33551 0.6707,0.33561l-0.0001,0.00021l-0.0002,0.00047l-0.0006,0.00113l-0.0015,0.00298l-0.0045,0.00885l-0.015,0.02897c-0.0127,0.02418 -0.0307,0.058 -0.054,0.10049c-0.0467,0.08494 -0.1149,0.20475 -0.2046,0.35175c-0.1791,0.29363 -0.4454,0.69788 -0.7995,1.15053c-0.0664,0.08488 -0.1502,0.19086 -0.2451,0.31018c-1.2353,1.55285 -2.9732,2.61796 -4.9017,3.04581l-1.78147,0.39522c-0.28242,0.06265 -0.57569,-0.0427 -0.75368,-0.27075c-0.17799,-0.22804 -0.20895,-0.53812 -0.07958,-0.79686l0.3142,-0.62841l-3.4963,0.69926c-0.24493,0.04898 -0.49817,-0.02718 -0.67544,-0.20315c-0.17728,-0.17597 -0.25532,-0.42864 -0.20815,-0.67393l0.73651,0.14164c-0.73651,-0.14164 -0.73645,-0.14194 -0.73638,-0.14227l0.00015,-0.00079l0.00039,-0.00202l0.00115,-0.00581l0.00376,-0.01861c0.00318,-0.01546 0.00769,-0.03696 0.01365,-0.06411c0.0119,-0.05428 0.02954,-0.13122 0.05364,-0.22759c0.04814,-0.19258 0.12227,-0.46374 0.22811,-0.78748c0.21081,-0.64482 0.55179,-1.51181 1.07257,-2.38537Zm0.41835,2.65812l3.79752,-0.75951c0.2809,-0.05617 0.5692,0.05255 0.7431,0.28019c0.1739,0.22765 0.2029,0.53445 0.0748,0.79066l-0.2956,0.59127l0.2438,-0.05409c1.6018,-0.35536 3.0367,-1.23813 4.0527,-2.51523c0.0938,-0.11793 0.1748,-0.22033 0.2376,-0.3006c0.3125,-0.39956 0.5462,-0.75474 0.7004,-1.0075c0.0522,-0.08544 0.095,-0.15894 0.1287,-0.21819c-0.0025,-0.01247 -0.0055,-0.02577 -0.009,-0.03979c-0.0311,-0.12432 -0.1071,-0.31697 -0.3044,-0.52472c-0.3926,-0.41329 -1.3992,-1.01656 -3.925,-1.01656c-2.2539,0 -3.6755,1.37596 -4.57455,2.88405c-0.3993,0.66979 -0.68075,1.3448 -0.87007,1.89002Zm10.4446,-3.02407l0.6708,0.33541c0.0408,-0.08161 0.0664,-0.16999 0.0755,-0.26078l-0.7463,-0.07463Zm-0.6703,-0.33644c0.0001,-0.00019 0.0001,-0.00021 0,-8e-05v8e-05Z"></path><path fill="#000" d="M16.5,3.23999v0.75c0,-0.75 -0.0004,-0.75 0,-0.75h0.0015l0.0016,1e-05l0.0036,2e-05l0.0082,0.0001l0.021,0.00052c0.0161,0.00052 0.0361,0.00145 0.0597,0.00308c0.047,0.00325 0.109,0.00931 0.1825,0.02062c0.146,0.02246 0.3436,0.06657 0.5629,0.15429c0.4465,0.17859 0.9816,0.53954 1.3298,1.23595c0.3424,0.68483 0.3358,1.35768 0.2565,1.83371c-0.04,0.23977 -0.0998,0.43964 -0.1507,0.58208c-0.0256,0.07164 -0.0493,0.12996 -0.0679,0.1729c-0.0093,0.02151 -0.0174,0.03926 -0.0238,0.05301l-0.0084,0.01762l-0.0015,0.00304l-1.4531,2.99996c-0.1385,0.286 -0.4422,0.4536 -0.7579,0.4185c-0.3158,-0.0351 -0.5752,-0.2654 -0.6475,-0.5748l-1.0468,-4.48112c-0.0517,-0.22117 -0.0004,-0.45384 0.1396,-0.63273c0.3126,-0.39956 0.5462,-0.75474 0.7004,-1.0075c0.077,-0.1262 0.1339,-0.22632 0.1705,-0.293c0.0183,-0.03333 0.0316,-0.05826 0.0398,-0.07386l0.0084,-0.01626l0.0009,-0.00173c0.1271,-0.25398 0.3867,-0.41441 0.6707,-0.41441Zm0.8263,3.42045l0.006,-0.01358c0.0068,-0.01565 0.0182,-0.04326 0.0317,-0.081c0.0273,-0.07631 0.0612,-0.18894 0.0837,-0.32417c0.0457,-0.27397 0.0391,-0.60112 -0.1185,-0.91629c-0.1276,-0.25527 -0.2999,-0.39421 -0.4576,-0.47442c-0.1383,0.22494 -0.3252,0.51043 -0.5611,0.83051l0.4848,2.07513l0.531,-1.09618Z"></path><path fill="#000" d="M18.0048,6.6416c0.4142,0 0.75,0.33579 0.75,0.75c0,0.41885 -0.0359,0.86183 -0.1038,1.31634c0.3588,0.35851 0.599,0.84271 0.599,1.40276c0,1.01 -0.7479,1.7412 -1.6307,2.0028c-0.522,1.1346 -1.2213,2.2193 -2.082,3.0548c-0.9543,0.9263 -2.1498,1.5839 -3.5373,1.5839c-1.3875,0 -2.58301,-0.6576 -3.53727,-1.5839c-0.86074,-0.8355 -1.56001,-1.9202 -2.08206,-3.0548c-0.8828,-0.2616 -1.63067,-0.9928 -1.63067,-2.0028c0,-0.55159 0.23302,-1.02961 0.58278,-1.38643c-0.05086,-0.23342 -0.08761,-0.44817 -0.08761,-0.83267c0,-0.41421 0.33579,-0.75 0.75,-0.75c0.41422,0 0.75,0.33579 0.75,0.75c0,0.2702 0.01161,0.32149 0.05702,0.52213c0.02276,0.10055 0.054,0.23861 0.09653,0.46053c0.05862,0.30589 -0.07792,0.61618 -0.34306,0.77961c-0.22474,0.13853 -0.30566,0.31628 -0.30566,0.45683c0,0.2026 0.21243,0.544 0.74318,0.6024c0.26989,0.0297 0.50267,0.2029 0.6086,0.4529c0.48097,1.1351 1.13527,2.1781 1.90572,2.926c0.7682,0.7456 1.6088,1.1602 2.4925,1.1602c0.8837,0 1.7243,-0.4146 2.4925,-1.1602c0.7704,-0.7479 1.4248,-1.7909 1.9057,-2.926c0.106,-0.25 0.3387,-0.4232 0.6086,-0.4529c0.5308,-0.0584 0.7432,-0.3998 0.7432,-0.6024c0,-0.14055 -0.0809,-0.31829 -0.3057,-0.45682c-0.2651,-0.16343 -0.4016,-0.47372 -0.343,-0.77962c0.1024,-0.53468 0.1535,-1.03721 0.1535,-1.48266c0,-0.41421 0.3358,-0.75 0.75,-0.75Z"></path></g></svg>