<svg width="24" height="24" viewBox="0 0 24 24" fill="none" xmlns="http://www.w3.org/2000/svg">
<path fill-rule="evenodd" clip-rule="evenodd" d="M6.3852 17.25C4.034 17.25 1.91967 18.6815 1.04646 20.8645L0.852233 21.3501C0.392428 22.4996 1.23901 23.75 2.47707 23.75H21.523C22.7611 23.75 23.6076 22.4996 23.1478 21.3501L22.9536 20.8645C22.0804 18.6815 19.9661 17.25 17.6149 17.25H6.3852Z" fill="#607D8B"/>
<path fill-rule="evenodd" clip-rule="evenodd" d="M15.75 17.25H8.25V18C8.25 18.1989 8.32902 18.3897 8.46967 18.5303L11.25 21.3107V23.75H12.75V21.3107L15.5303 18.5303C15.671 18.3897 15.75 18.1989 15.75 18V17.25Z" fill="#90A7B2"/>
<path fill-rule="evenodd" clip-rule="evenodd" d="M5.99517 6.6416C5.58096 6.6416 5.24517 6.97739 5.24517 7.3916C5.24517 7.81045 5.2811 8.25343 5.34895 8.70794C4.99023 9.06645 4.75 9.55065 4.75 10.1107C4.75 11.1207 5.49787 11.8519 6.38067 12.1135C6.90272 13.2481 7.60199 14.3328 8.46273 15.1683C9.41699 16.0946 10.6125 16.7522 12 16.7522C13.3875 16.7522 14.583 16.0946 15.5373 15.1683C16.398 14.3328 17.0973 13.2481 17.6193 12.1135C18.5021 11.8519 19.25 11.1207 19.25 10.1107C19.25 9.55065 19.0098 9.06645 18.651 8.70794C18.7189 8.25343 18.7548 7.81045 18.7548 7.3916C18.7548 6.97739 18.419 6.6416 18.0048 6.6416H5.99517Z" fill="#FFDBA6"/>
<path fill-rule="evenodd" clip-rule="evenodd" d="M9.61198 0.25C6.72137 0.25 4.50092 2.81019 4.90972 5.67175L5.25748 8.10607C5.31026 8.47555 5.6267 8.75 5.99994 8.75H11.9999H17.9999C18.3732 8.75 18.6896 8.47555 18.7424 8.10607L19.0902 5.67175C19.499 2.81019 17.2785 0.25 14.3879 0.25H9.61198Z" fill="#F44336"/>
<path fill-rule="evenodd" clip-rule="evenodd" d="M10 2.75C9.58579 2.75 9.25 3.08579 9.25 3.5V5.75C9.25 6.16421 9.58579 6.5 10 6.5H14C14.4142 6.5 14.75 6.16421 14.75 5.75V3.5C14.75 3.08579 14.4142 2.75 14 2.75H10Z" fill="#E5E6E8"/>
<path fill-rule="evenodd" clip-rule="evenodd" d="M6.00007 7.25C5.65224 7.25 5.35005 7.48916 5.27014 7.82769C5.19022 8.16621 5.35355 8.51526 5.66466 8.67082L9.66466 11.1708C9.7688 11.2229 9.88364 11.25 10.0001 11.25H14.0001C14.1165 11.25 14.2313 11.2229 14.3355 11.1708L18.3355 8.67082C18.6466 8.51526 18.8099 8.16621 18.73 7.82769C18.6501 7.48916 18.3479 7.25 18.0001 7.25H12.0001H6.00007Z" fill="#486472"/>
<path fill-rule="evenodd" clip-rule="evenodd" d="M1.04646 20.8645C1.91967 18.6815 4.034 17.25 6.3852 17.25H17.6149C19.9661 17.25 22.0804 18.6815 22.9536 20.8645L23.1478 21.3501C23.6076 22.4996 22.7611 23.75 21.523 23.75H2.47707C1.23901 23.75 0.392428 22.4996 0.852233 21.3501L1.04646 20.8645ZM6.3852 18.75C4.64736 18.75 3.08459 19.808 2.43917 21.4216L2.24495 21.9072C2.17926 22.0714 2.3002 22.25 2.47707 22.25H21.523C21.6999 22.25 21.8208 22.0714 21.7551 21.9072L21.5609 21.4216C20.9155 19.808 19.3527 18.75 17.6149 18.75H6.3852Z" fill="black"/>
<path fill-rule="evenodd" clip-rule="evenodd" d="M8.46967 17.4697C8.76256 17.1768 9.23744 17.1768 9.53033 17.4697L12 19.9393L14.4697 17.4697C14.7626 17.1768 15.2374 17.1768 15.5303 17.4697C15.8232 17.7626 15.8232 18.2374 15.5303 18.5303L12.5303 21.5303C12.2374 21.8232 11.7626 21.8232 11.4697 21.5303L8.46967 18.5303C8.17678 18.2374 8.17678 17.7626 8.46967 17.4697Z" fill="black"/>
<path fill-rule="evenodd" clip-rule="evenodd" d="M12 20C12.4142 20 12.75 20.3358 12.75 20.75V23C12.75 23.4142 12.4142 23.75 12 23.75C11.5858 23.75 11.25 23.4142 11.25 23V20.75C11.25 20.3358 11.5858 20 12 20Z" fill="black"/>
<path fill-rule="evenodd" clip-rule="evenodd" d="M5.95967 7.25252C6.37249 7.21859 6.73466 7.52573 6.7686 7.93855C6.79301 8.23552 6.83646 8.54937 6.89872 8.87426C6.95734 9.18015 6.8208 9.49044 6.55566 9.65387C6.33092 9.7924 6.25 9.97015 6.25 10.1107C6.25 10.3133 6.46243 10.6547 6.99318 10.7131C7.26307 10.7428 7.49585 10.916 7.60178 11.166C8.08275 12.3011 8.73705 13.3441 9.5075 14.092C10.2757 14.8376 11.1163 15.2522 12 15.2522C12.8837 15.2522 13.7243 14.8376 14.4925 14.092C15.2629 13.3441 15.9173 12.3011 16.3982 11.166C16.5042 10.916 16.7369 10.7428 17.0068 10.7131C17.5376 10.6547 17.75 10.3133 17.75 10.1107C17.75 9.97015 17.6691 9.79241 17.4443 9.65388C17.1792 9.49045 17.0427 9.18016 17.1013 8.87427C17.1635 8.54937 17.207 8.23552 17.2314 7.93855C17.2653 7.52573 17.6275 7.21859 18.0403 7.25252C18.4532 7.28646 18.7603 7.64863 18.7264 8.06145C18.709 8.27308 18.6837 8.48903 18.651 8.70794C19.0098 9.06645 19.25 9.55065 19.25 10.1107C19.25 11.1207 18.5021 11.8519 17.6193 12.1135C17.0973 13.2481 16.398 14.3328 15.5373 15.1683C14.583 16.0946 13.3875 16.7522 12 16.7522C10.6125 16.7522 9.41699 16.0946 8.46273 15.1683C7.60199 14.3328 6.90272 13.2481 6.38067 12.1135C5.49787 11.8519 4.75 11.1207 4.75 10.1107C4.75 9.55065 4.99023 9.06645 5.34895 8.70794C5.31627 8.48903 5.29104 8.27308 5.27364 8.06145C5.23971 7.64863 5.54685 7.28646 5.95967 7.25252Z" fill="black"/>
<path fill-rule="evenodd" clip-rule="evenodd" d="M9.6121 1.75C7.63431 1.75 6.11506 3.50171 6.39476 5.45962L6.65053 7.25H17.3496L17.6054 5.45962C17.8851 3.50171 16.3658 1.75 14.388 1.75H9.6121ZM4.90984 5.67175C4.50104 2.81019 6.72149 0.25 9.6121 0.25H14.388C17.2786 0.25 19.4991 2.81019 19.0903 5.67175L18.7425 8.10607C18.6897 8.47555 18.3733 8.75 18.0001 8.75H6.00006C5.62682 8.75 5.31038 8.47555 5.2576 8.10607L4.90984 5.67175Z" fill="black"/>
<path fill-rule="evenodd" clip-rule="evenodd" d="M9.25 3.5C9.25 3.08579 9.58579 2.75 10 2.75H14C14.4142 2.75 14.75 3.08579 14.75 3.5V5.75C14.75 6.16421 14.4142 6.5 14 6.5H10C9.58579 6.5 9.25 6.16421 9.25 5.75V3.5ZM10.75 4.25V5H13.25V4.25H10.75Z" fill="black"/>
<path fill-rule="evenodd" clip-rule="evenodd" d="M5.27913 7.79324C5.37136 7.47162 5.66548 7.25 6.00006 7.25H18.0001C18.3346 7.25 18.6288 7.47162 18.721 7.79324C18.8132 8.11485 18.6813 8.45867 18.3976 8.636L14.3976 11.136C14.2784 11.2105 14.1406 11.25 14.0001 11.25H10.0001C9.8595 11.25 9.72176 11.2105 9.60256 11.136L5.60256 8.636C5.31884 8.45867 5.18689 8.11485 5.27913 7.79324ZM8.61516 8.75L10.2152 9.75H13.785L15.385 8.75H8.61516Z" fill="black"/>
</svg>
