<svg xmlns="http://www.w3.org/2000/svg" width="48" height="48" fill="none" viewBox="0 0 24 24"><path fill="#ECEFF1" d="M11.995.75c-4.01 0-6.75 2.983-6.75 6.641 0 1.779.649 4.064 1.763 5.913 1.099 1.825 2.796 3.448 4.987 3.448 2.192 0 3.889-1.623 4.988-3.448 1.113-1.85 1.762-4.134 1.762-5.913 0-3.658-2.739-6.641-6.75-6.641Z"/><path fill="#486472" d="M11.995.75c-4.01 0-6.75 2.983-6.75 6.641 0 1.662.566 3.76 1.541 5.529a.75.75 0 0 0 1.075.26l4.133-2.776 4.129 2.785a.75.75 0 0 0 1.076-.26c.978-1.771 1.546-3.873 1.546-5.538 0-3.658-2.739-6.641-6.75-6.641Z"/><path fill="#FFC107" d="M12 4.25a4.25 4.25 0 1 0 0 8.5 4.25 4.25 0 0 0 0-8.5Z"/><path fill="#F44336" fill-rule="evenodd" d="M9.721.304a.75.75 0 0 1 .975.417L12 3.981 13.304.72a.75.75 0 1 1 1.392.558L12.75 6.144V12a.75.75 0 0 1-1.5 0V6.144L9.304 1.28A.75.75 0 0 1 9.72.304Z" clip-rule="evenodd"/><path fill="#ECEFF1" d="M6.385 17.25a5.75 5.75 0 0 0-5.339 3.614l-.194.486a1.75 1.75 0 0 0 1.625 2.4h19.046a1.75 1.75 0 0 0 1.625-2.4l-.194-.486a5.75 5.75 0 0 0-5.34-3.614H6.386Z"/><path fill="#F44336" fill-rule="evenodd" d="m.895 21.243.151-.378c.16-.398.36-.771.595-1.115H5.5a.75.75 0 0 1 0 1.5H1a.755.755 0 0 1-.105-.007ZM11.25 23.75v-2.255l-3.045-1.306a.75.75 0 0 1-.455-.689v-2.25h1.5v1.756L12 20.184l2.75-1.178V17.25h1.5v2.25a.75.75 0 0 1-.455.69l-3.045 1.305v2.255h-1.5Zm11.109-4c.235.344.435.717.595 1.114l.15.379a.756.756 0 0 1-.104.007h-4.5a.75.75 0 0 1 0-1.5h3.859Z" clip-rule="evenodd"/><path fill="#000" fill-rule="evenodd" d="M11.995 2.25c-3.163 0-5.25 2.292-5.25 5.141 0 1.476.558 3.496 1.547 5.139 1.005 1.667 2.308 2.722 3.703 2.722 1.396 0 2.699-1.055 3.703-2.722.99-1.643 1.547-3.663 1.547-5.139 0-2.849-2.087-5.141-5.25-5.141Zm-6.75 5.141c0-3.658 2.74-6.641 6.75-6.641 4.011 0 6.75 2.983 6.75 6.641 0 1.779-.649 4.064-1.762 5.913-1.1 1.825-2.796 3.448-4.988 3.448-2.191 0-3.888-1.623-4.987-3.448-1.114-1.85-1.763-4.134-1.763-5.913Z" clip-rule="evenodd"/><path fill="#000" fill-rule="evenodd" d="M9.721.304a.75.75 0 0 1 .975.417l.554 1.385V2a.75.75 0 0 1 1.5 0v.106L13.304.72a.75.75 0 0 1 1.392.558L12.75 6.144v5.106a.75.75 0 0 1-1.5 0V6.144L9.304 1.28A.75.75 0 0 1 9.72.304Zm.415 10.548a.75.75 0 0 1-.239 1.034l-2 1.25a.75.75 0 1 1-.795-1.272l2-1.25a.75.75 0 0 1 1.034.238Zm3.728 0a.75.75 0 0 1 1.034-.238l2 1.25a.75.75 0 0 1-.796 1.272l-2-1.25a.75.75 0 0 1-.238-1.034ZM1.046 20.864a5.75 5.75 0 0 1 5.34-3.614h11.229a5.75 5.75 0 0 1 5.339 3.614l.194.486a1.75 1.75 0 0 1-1.625 2.4H2.477a1.75 1.75 0 0 1-1.625-2.4l.194-.486Zm5.34-2.114a4.25 4.25 0 0 0-3.947 2.672l-.194.485a.25.25 0 0 0 .232.343h19.046a.25.25 0 0 0 .232-.343l-.194-.485a4.25 4.25 0 0 0-3.946-2.672H6.385Z" clip-rule="evenodd"/><path fill="#000" fill-rule="evenodd" d="M15.927 10.126A4.25 4.25 0 0 0 12 4.25a.75.75 0 0 0-.75.75v7c0 .414.336.75.75.75a4.25 4.25 0 0 0 3.927-2.624ZM14.75 8.5a2.75 2.75 0 0 1-2 2.646V5.854a2.757 2.757 0 0 1 1.79 1.594c.139.333.21.69.21 1.052Z" clip-rule="evenodd"/><path fill="#000" fill-rule="evenodd" d="M8.074 6.874A4.25 4.25 0 0 0 12 12.75a.75.75 0 0 0 .75-.75V5a.75.75 0 0 0-.75-.75 4.25 4.25 0 0 0-3.926 2.624ZM9.25 8.5a2.75 2.75 0 0 1 2-2.646v5.292a2.774 2.774 0 0 1-1.194-.702A2.749 2.749 0 0 1 9.25 8.5ZM8.5 17.75a.75.75 0 0 1 .75.75v.506L12 20.184l2.75-1.178V18.5a.75.75 0 0 1 1.5 0v1a.75.75 0 0 1-.455.69l-3.045 1.304V22.5a.75.75 0 0 1-1.5 0v-1.006L8.205 20.19a.75.75 0 0 1-.455-.689v-1a.75.75 0 0 1 .75-.75ZM1.25 20.5a.75.75 0 0 1 .75-.75h3.5a.75.75 0 0 1 0 1.5H2a.75.75 0 0 1-.75-.75Zm16.5 0a.75.75 0 0 1 .75-.75h3a.75.75 0 0 1 0 1.5h-3a.75.75 0 0 1-.75-.75Z" clip-rule="evenodd"/></svg>