<svg width="24" height="24" viewBox="0 0 24 24" fill="none" xmlns="http://www.w3.org/2000/svg">
<path fill-rule="evenodd" clip-rule="evenodd" d="M6.47317 10.63C6.33709 10.4754 6.1434 10.3835 5.93756 10.376C5.73172 10.3685 5.53185 10.4459 5.38484 10.5902L4.3734 11.5828C3.65483 12.288 3.25 13.2525 3.25 14.2593V15.0001C3.25 15.4143 3.58579 15.7501 4 15.7501H6.5C7.74264 15.7501 8.75 14.7427 8.75 13.5001L8 13.5001L8.56301 13.0046L6.47317 10.63Z" fill="#486472"/>
<path fill-rule="evenodd" clip-rule="evenodd" d="M17.4743 10.5948C17.609 10.4355 17.8041 10.3395 18.0126 10.3299C18.2211 10.3203 18.4241 10.398 18.5729 10.5444L19.6295 11.5835C20.3463 12.2885 20.75 13.2518 20.75 14.2572V14.9999C20.75 15.4141 20.4142 15.7499 20 15.7499H17.5C16.2574 15.7499 15.25 14.7425 15.25 13.4999L16 13.4999L15.4273 13.0156L17.4743 10.5948Z" fill="#486472"/>
<path fill-rule="evenodd" clip-rule="evenodd" d="M6.3852 17.25C4.034 17.25 1.91967 18.6815 1.04646 20.8645L0.852233 21.3501C0.392428 22.4996 1.23901 23.75 2.47707 23.75H21.523C22.7611 23.75 23.6076 22.4996 23.1478 21.3501L22.8106 20.5069C22.0237 18.5398 20.1186 17.25 18 17.25H6.3852Z" fill="#90A7B2"/>
<path fill-rule="evenodd" clip-rule="evenodd" d="M13 2.25C12.8619 2.25 12.75 2.36193 12.75 2.5V3C12.75 3.41421 12.4142 3.75 12 3.75C11.5858 3.75 11.25 3.41421 11.25 3V2.5C11.25 1.5335 12.0335 0.75 13 0.75H14C14.4142 0.75 14.75 1.08579 14.75 1.5C14.75 1.91421 14.4142 2.25 14 2.25H13Z" fill="#FA7369"/>
<path fill-rule="evenodd" clip-rule="evenodd" d="M7.5 14.25C6.25736 14.25 5.25 15.2574 5.25 16.5C5.25 17.7426 6.25736 18.75 7.5 18.75H14H18C18.4142 18.75 18.75 18.4142 18.75 18V17C18.75 15.4812 17.5188 14.25 16 14.25H15H9H7.5Z" fill="#FFD24B"/>
<path fill-rule="evenodd" clip-rule="evenodd" d="M14 14.25C13.5858 14.25 13.25 14.5858 13.25 15V15.5V20C13.25 20.4142 13.5858 20.75 14 20.75H18C18.4142 20.75 18.75 20.4142 18.75 20V17C18.75 15.4812 17.5188 14.25 16 14.25H15H14Z" fill="#FFC516"/>
<path fill-rule="evenodd" clip-rule="evenodd" d="M5.99517 6.6416C5.58096 6.6416 5.24517 6.97739 5.24517 7.3916C5.24517 7.81045 5.2811 8.25343 5.34895 8.70794C4.99023 9.06645 4.75 9.55065 4.75 10.1107C4.75 11.1207 5.49787 11.8519 6.38067 12.1135C6.90272 13.2481 7.60199 14.3328 8.46273 15.1683C9.41699 16.0946 10.6125 16.7522 12 16.7522C13.3875 16.7522 14.583 16.0946 15.5373 15.1683C16.398 14.3328 17.0973 13.2481 17.6193 12.1135C18.5021 11.8519 19.25 11.1207 19.25 10.1107C19.25 9.55065 19.0098 9.06645 18.651 8.70794C18.7189 8.25343 18.7548 7.81045 18.7548 7.3916C18.7548 6.97739 18.419 6.6416 18.0048 6.6416H5.99517Z" fill="#FFDBA6"/>
<path fill-rule="evenodd" clip-rule="evenodd" d="M14 19.25C14.4142 19.25 14.75 19.5858 14.75 20V21C14.75 21.4142 14.4142 21.75 14 21.75C13.5858 21.75 13.25 21.4142 13.25 21V20C13.25 19.5858 13.5858 19.25 14 19.25Z" fill="#FFD24B"/>
<path fill-rule="evenodd" clip-rule="evenodd" d="M16 19.25C16.4142 19.25 16.75 19.5858 16.75 20V21C16.75 21.4142 16.4142 21.75 16 21.75C15.5858 21.75 15.25 21.4142 15.25 21V20C15.25 19.5858 15.5858 19.25 16 19.25Z" fill="#FFD24B"/>
<path fill-rule="evenodd" clip-rule="evenodd" d="M18 19.25C18.4142 19.25 18.75 19.5858 18.75 20V21C18.75 21.4142 18.4142 21.75 18 21.75C17.5858 21.75 17.25 21.4142 17.25 21V20C17.25 19.5858 17.5858 19.25 18 19.25Z" fill="#FFD24B"/>
<path fill-rule="evenodd" clip-rule="evenodd" d="M6.28492 1.98384C4.66221 1.81481 3.25 3.08755 3.25 4.71904V5.49988C3.25 7.01867 4.48122 8.24988 6 8.24988H18.2468C19.6293 8.24988 20.75 7.12915 20.75 5.74665C20.75 4.46455 19.7813 3.38971 18.5061 3.25688L6.28492 1.98384Z" fill="#F44336"/>
<path fill-rule="evenodd" clip-rule="evenodd" d="M5.99331 6.79004C6.40752 6.79004 6.74331 7.12583 6.74331 7.54004C6.74331 7.97057 6.79222 8.31816 6.89872 8.87392C6.95734 9.17982 6.8208 9.49011 6.55566 9.65353C6.33092 9.79207 6.25 9.96981 6.25 10.1104C6.25 10.313 6.46243 10.6544 6.99318 10.7128C7.26307 10.7424 7.49585 10.9157 7.60178 11.1657C8.08275 12.3008 8.73705 13.3437 9.5075 14.0916C10.2757 14.8373 11.1163 15.2518 12 15.2518C12.8837 15.2518 13.7243 14.8373 14.4925 14.0916C15.2629 13.3438 15.9173 12.3008 16.3982 11.1657C16.5042 10.9157 16.7369 10.7424 17.0068 10.7128C17.5376 10.6544 17.75 10.313 17.75 10.1104C17.75 9.96981 17.6691 9.79207 17.4443 9.65354C17.1792 9.49011 17.0427 9.17982 17.1013 8.87393C17.2125 8.29351 17.274 7.95941 17.274 7.54038C17.274 7.12616 17.6098 6.79038 18.024 6.79038C18.4383 6.79038 18.774 7.12616 18.774 7.54038C18.774 7.96476 18.7256 8.32868 18.6573 8.71387C19.0126 9.07175 19.25 9.55357 19.25 10.1104C19.25 11.1203 18.5021 11.8516 17.6193 12.1132C17.0973 13.2478 16.398 14.3324 15.5373 15.1679C14.583 16.0942 13.3875 16.7518 12 16.7518C10.6125 16.7518 9.41699 16.0942 8.46273 15.1679C7.60199 14.3324 6.90272 13.2478 6.38067 12.1132C5.49787 11.8516 4.75 11.1203 4.75 10.1104C4.75 9.55216 4.98864 9.06931 5.34541 8.71115C5.28068 8.31683 5.24331 7.95953 5.24331 7.54004C5.24331 7.12583 5.57909 6.79004 5.99331 6.79004Z" fill="black"/>
<path fill-rule="evenodd" clip-rule="evenodd" d="M17.5123 10.5532C17.2218 10.8485 17.2258 11.3234 17.5211 11.6138L18.5777 12.653C19.006 13.0743 19.248 13.6493 19.25 14.2499H17.5C17.0858 14.2499 16.75 13.9141 16.75 13.4999L15.25 13.4999C15.25 14.7425 16.2574 15.7499 17.5 15.7499H20C20.4142 15.7499 20.75 15.4141 20.75 14.9999V14.2572C20.75 13.2518 20.3463 12.2885 19.6295 11.5835L18.5729 10.5444C18.2776 10.2539 17.8027 10.2579 17.5123 10.5532Z" fill="black"/>
<path fill-rule="evenodd" clip-rule="evenodd" d="M6.42243 10.5532C6.71287 10.8485 6.70892 11.3234 6.4136 11.6138L5.35699 12.653C4.92865 13.0743 4.68665 13.6493 4.6847 14.2499H6.43469C6.84891 14.2499 7.18469 13.9141 7.18469 13.4999L8.68469 13.4999C8.68469 14.7425 7.67733 15.7499 6.43469 15.7499H3.93469C3.52048 15.7499 3.18469 15.4141 3.18469 14.9999V14.2572C3.18469 13.2518 3.5884 12.2885 4.3052 11.5835L5.3618 10.5444C5.65712 10.2539 6.13198 10.2579 6.42243 10.5532Z" fill="black"/>
<path fill-rule="evenodd" clip-rule="evenodd" d="M3.25 4.71915C3.25 3.08767 4.66221 1.81492 6.28492 1.98395L18.5061 3.25699C19.7813 3.38983 20.75 4.46467 20.75 5.74676C20.75 7.12926 19.6293 8.25 18.2468 8.25H6C4.48122 8.25 3.25 7.01878 3.25 5.5V4.71915ZM6.12951 3.47588C5.39191 3.39905 4.75 3.97757 4.75 4.71915V5.5C4.75 6.19035 5.30964 6.75 6 6.75H18.2468C18.8008 6.75 19.25 6.30083 19.25 5.74676C19.25 5.23293 18.8618 4.80216 18.3507 4.74892L6.12951 3.47588Z" fill="black"/>
<path fill-rule="evenodd" clip-rule="evenodd" d="M13 2.25C12.8619 2.25 12.75 2.36193 12.75 2.5V3C12.75 3.41421 12.4142 3.75 12 3.75C11.5858 3.75 11.25 3.41421 11.25 3V2.5C11.25 1.5335 12.0335 0.75 13 0.75H14C14.4142 0.75 14.75 1.08579 14.75 1.5C14.75 1.91421 14.4142 2.25 14 2.25H13Z" fill="black"/>
<path fill-rule="evenodd" clip-rule="evenodd" d="M7.5 15.75C7.08579 15.75 6.75 16.0858 6.75 16.5C6.75 16.9142 7.08579 17.25 7.5 17.25H14C14.4142 17.25 14.75 17.5858 14.75 18C14.75 18.4142 14.4142 18.75 14 18.75H7.5C6.25736 18.75 5.25 17.7426 5.25 16.5C5.25 15.2574 6.25736 14.25 7.5 14.25H9C9.41421 14.25 9.75 14.5858 9.75 15C9.75 15.4142 9.41421 15.75 9 15.75H7.5ZM14.25 15C14.25 14.5858 14.5858 14.25 15 14.25H16C17.5188 14.25 18.75 15.4812 18.75 17V18C18.75 18.4142 18.4142 18.75 18 18.75C17.5858 18.75 17.25 18.4142 17.25 18V17C17.25 16.3096 16.6904 15.75 16 15.75H15C14.5858 15.75 14.25 15.4142 14.25 15Z" fill="black"/>
<path fill-rule="evenodd" clip-rule="evenodd" d="M6.3852 18.75C4.64736 18.75 3.08459 19.808 2.43917 21.4216L2.24495 21.9072C2.17926 22.0714 2.3002 22.25 2.47707 22.25H21.523C21.6999 22.25 21.8208 22.0714 21.7551 21.9072L21.4178 21.064C20.8588 19.6664 19.5053 18.75 18 18.75V17.25C20.1186 17.25 22.0237 18.5398 22.8106 20.5069L23.1478 21.3501C23.6076 22.4996 22.7611 23.75 21.523 23.75H2.47707C1.23901 23.75 0.392428 22.4996 0.852233 21.3501L1.04646 20.8645C1.91967 18.6815 4.034 17.25 6.3852 17.25H12C12.4142 17.25 12.75 17.5858 12.75 18C12.75 18.4142 12.4142 18.75 12 18.75H6.3852Z" fill="black"/>
<path fill-rule="evenodd" clip-rule="evenodd" d="M14.2763 14.8025C14.3629 14.4841 14.6541 14.25 15 14.25H16C17.5188 14.25 18.75 15.4812 18.75 17V20C18.75 20.4142 18.4142 20.75 18 20.75H14C13.5858 20.75 13.25 20.4142 13.25 20V15.5C13.25 15.0858 13.5858 14.75 14 14.75C14.0976 14.75 14.1908 14.7686 14.2763 14.8025ZM14.75 15.7073V19.25H17.25V17C17.25 16.3096 16.6904 15.75 16 15.75H15C14.9123 15.75 14.8282 15.735 14.75 15.7073Z" fill="black"/>
<path fill-rule="evenodd" clip-rule="evenodd" d="M14 19.25C14.4142 19.25 14.75 19.5858 14.75 20V21C14.75 21.4142 14.4142 21.75 14 21.75C13.5858 21.75 13.25 21.4142 13.25 21V20C13.25 19.5858 13.5858 19.25 14 19.25Z" fill="black"/>
<path fill-rule="evenodd" clip-rule="evenodd" d="M16 19.25C16.4142 19.25 16.75 19.5858 16.75 20V21C16.75 21.4142 16.4142 21.75 16 21.75C15.5858 21.75 15.25 21.4142 15.25 21V20C15.25 19.5858 15.5858 19.25 16 19.25Z" fill="black"/>
<path fill-rule="evenodd" clip-rule="evenodd" d="M18 19.25C18.4142 19.25 18.75 19.5858 18.75 20V21C18.75 21.4142 18.4142 21.75 18 21.75C17.5858 21.75 17.25 21.4142 17.25 21V20C17.25 19.5858 17.5858 19.25 18 19.25Z" fill="black"/>
</svg>
