<svg xmlns="http://www.w3.org/2000/svg" width="48" height="48" fill="none" viewBox="0 0 24 24"><path fill="#486472" d="M7 11.25a.75.75 0 0 0-.53.22L5.348 12.59a3.75 3.75 0 0 0-1.098 2.652V16c0 .414.336.75.75.75h2.5c.181 0 .359-.022.529-.063.61-.147 1.182-.523 1.618-.81l.175-.115c.532-.344.876-.512 1.178-.512h2c.303 0 .646.168 1.178.512l.175.114c.436.288 1.009.664 1.618.811.17.041.348.063.529.063H19a.75.75 0 0 0 .75-.75v-.757a3.75 3.75 0 0 0-1.098-2.652L17.53 11.47a.75.75 0 0 0-.53-.22H7Z"/><path fill="#2196F3" d="M6.385 17.25a5.75 5.75 0 0 0-5.339 3.614l-.194.486a1.75 1.75 0 0 0 1.625 2.4h19.046a1.75 1.75 0 0 0 1.625-2.4l-.194-.486a5.75 5.75 0 0 0-5.34-3.614H6.386Z"/><path fill="#ECEFF1" fill-rule="evenodd" d="M17.706 17.25H6.294c-.097.31-.03 1.075.176 1.28l3 3a.75.75 0 0 0 1.06 0L12 19.31l1.47 2.22a.75.75 0 0 0 1.06 0l3-3c.206-.205.273-.97.176-1.28Z" clip-rule="evenodd"/><path fill="#FFDBA6" d="M6.021 7.25a.75.75 0 0 0-.747.811c.017.212.042.428.075.647a1.972 1.972 0 0 0-.599 1.403c0 1.01.748 1.74 1.63 2.002.203.44.43.87.683 1.28 1.1 1.786 2.779 3.36 4.937 3.36 2.158 0 3.837-1.574 4.937-3.36.252-.41.48-.84.682-1.28.883-.261 1.631-.992 1.631-2.002 0-.56-.24-1.045-.599-1.403a9.84 9.84 0 0 0 .075-.647.75.75 0 0 0-.747-.811H6.02Z"/><path fill="#FAFAFA" fill-rule="evenodd" d="M17.93 12h-1.24l-2.419-1.317a4.75 4.75 0 0 0-4.542 0L7.309 12H6.071c.1.044.204.082.31.114.202.439.43.87.682 1.28 1.1 1.785 2.779 3.358 4.937 3.358 2.158 0 3.837-1.573 4.937-3.359.252-.41.48-.84.682-1.28.106-.03.21-.069.31-.113Z" clip-rule="evenodd"/><path fill="#2196F3" d="M10 .25A4.75 4.75 0 0 0 5.25 5v2.75c0 .021 0 .042.003.063l.02.25a.75.75 0 0 0 .748.687H17.98a.75.75 0 0 0 .747-.687l.021-.25a.74.74 0 0 0 .003-.063V5A4.75 4.75 0 0 0 14 .25h-4Z"/><path fill="#ECEFF1" d="M12 4.25a2.75 2.75 0 1 0 0 5.5 2.75 2.75 0 0 0 0-5.5Z"/><path fill="#000" fill-rule="evenodd" d="M1.046 20.864a5.75 5.75 0 0 1 5.34-3.614h11.229a5.75 5.75 0 0 1 5.339 3.614l.194.486a1.75 1.75 0 0 1-1.625 2.4H2.477a1.75 1.75 0 0 1-1.625-2.4l.194-.486Zm5.34-2.114a4.25 4.25 0 0 0-3.947 2.672l-.194.485a.25.25 0 0 0 .232.343h19.046a.25.25 0 0 0 .232-.343l-.194-.485a4.25 4.25 0 0 0-3.946-2.672H6.385Z" clip-rule="evenodd"/><path fill="#000" fill-rule="evenodd" d="M6.307 17.713A.75.75 0 0 1 7 17.25h5a.75.75 0 0 1 .624 1.166l-2 3a.75.75 0 0 1-1.154.114l-3-3a.75.75 0 0 1-.163-.817Zm2.504 1.037 1.072 1.073.716-1.073H8.81Z" clip-rule="evenodd"/><path fill="#000" fill-rule="evenodd" d="M11.339 17.646A.75.75 0 0 1 12 17.25h5a.75.75 0 0 1 .53 1.28l-3 3a.75.75 0 0 1-1.154-.114l-2-3a.75.75 0 0 1-.037-.77ZM13.4 18.75l.716 1.073 1.072-1.073h-1.788ZM5.96 7.253a.75.75 0 0 1 .809.686c.024.297.067.61.13.935a.75.75 0 0 1-.343.78c-.225.138-.306.316-.306.457 0 .202.212.544.743.602a.75.75 0 0 1 .609.453c.48 1.135 1.135 2.178 1.905 2.926.769.746 1.61 1.16 2.493 1.16.884 0 1.724-.414 2.492-1.16.77-.748 1.425-1.79 1.906-2.926a.75.75 0 0 1 .609-.453c.53-.058.743-.4.743-.602 0-.14-.08-.319-.306-.457a.75.75 0 0 1-.343-.78c.063-.325.106-.638.13-.935a.75.75 0 1 1 1.495.122 9.84 9.84 0 0 1-.075.647c.359.358.599.843.599 1.403 0 1.01-.748 1.741-1.63 2.002-.523 1.135-1.222 2.22-2.083 3.055-.954.927-2.15 1.584-3.537 1.584s-2.583-.657-3.537-1.584c-.861-.835-1.56-1.92-2.082-3.054-.883-.262-1.631-.993-1.631-2.003 0-.56.24-1.045.599-1.403a9.852 9.852 0 0 1-.075-.647.75.75 0 0 1 .686-.808Z" clip-rule="evenodd"/><path fill="#000" fill-rule="evenodd" d="M10 1.75A3.25 3.25 0 0 0 6.75 5v2.25H10a.75.75 0 0 1 0 1.5H6A.75.75 0 0 1 5.25 8V5A4.75 4.75 0 0 1 10 .25h4A4.75 4.75 0 0 1 18.75 5v3a.75.75 0 0 1-.75.75h-4a.75.75 0 0 1 0-1.5h3.25V5A3.25 3.25 0 0 0 14 1.75h-4Z" clip-rule="evenodd"/><path fill="#000" fill-rule="evenodd" d="M12 5.75a1.25 1.25 0 1 0 0 2.5 1.25 1.25 0 0 0 0-2.5ZM9.25 7a2.75 2.75 0 1 1 5.5 0 2.75 2.75 0 0 1-5.5 0ZM7.53 11.47a.75.75 0 0 1 0 1.06L6.41 13.652a2.25 2.25 0 0 0-.659 1.59v.008H7.5a.75.75 0 0 0 .75-.75h1.5a2.25 2.25 0 0 1-2.25 2.25H5a.75.75 0 0 1-.75-.75v-.757a3.75 3.75 0 0 1 1.098-2.652L6.47 11.47a.75.75 0 0 1 1.06 0ZM16.47 11.47a.75.75 0 0 0 0 1.06l1.121 1.122c.422.422.659.994.659 1.59v.008H16.5a.75.75 0 0 1-.75-.75h-1.5a2.25 2.25 0 0 0 2.25 2.25H19a.75.75 0 0 0 .75-.75v-.757a3.75 3.75 0 0 0-1.098-2.652L17.53 11.47a.75.75 0 0 0-1.06 0Z" clip-rule="evenodd"/><path fill="#000" fill-rule="evenodd" d="M13.554 12a3.25 3.25 0 0 0-3.108 0L7.86 13.41a.75.75 0 1 1-.718-1.318l2.588-1.408a4.75 4.75 0 0 1 4.542 0l2.588 1.408a.75.75 0 1 1-.718 1.318L13.554 12Z" clip-rule="evenodd"/></svg>