<svg width="24" height="24" viewBox="0 0 24 24" fill="none" xmlns="http://www.w3.org/2000/svg">
<path fill-rule="evenodd" clip-rule="evenodd" d="M12 0.75C7.98685 0.75 5.24517 3.73262 5.24517 7.39143C5.24517 7.81028 5.2811 8.25326 5.34895 8.70777C4.99023 9.06628 4.75 9.55048 4.75 10.1105C4.75 11.1205 5.49787 11.8518 6.38068 12.1133C6.97061 13.3955 7.78906 14.6185 8.8148 15.4879C8.95029 15.6027 9.12212 15.6657 9.29972 15.6657H14.7003C14.8779 15.6657 15.0497 15.6027 15.1852 15.4879C16.2109 14.6185 17.0294 13.3955 17.6193 12.1133C18.5021 11.8518 19.25 11.1205 19.25 10.1105C19.25 9.55047 19.0098 9.06628 18.651 8.70777C18.7189 8.25326 18.7548 7.81028 18.7548 7.39143C18.7548 3.73262 16.0132 0.75 12 0.75Z" fill="#FFDBA6"/>
<path fill-rule="evenodd" clip-rule="evenodd" d="M18.709 8.25H18.0001H16.0001H13.5524C12.7009 8.25 11.8747 7.9602 11.2098 7.42826L10.3081 6.70687C9.67199 7.95219 8.38649 8.75 6.96897 8.75H6.50007H5.30787C5.3214 8.73574 5.33512 8.72166 5.34902 8.70777C5.28116 8.25326 5.24524 7.81028 5.24524 7.39143C5.24524 3.73262 7.98691 0.75 12.0001 0.75C16.0132 0.75 18.7549 3.73262 18.7549 7.39143C18.7549 7.66829 18.7392 7.95569 18.709 8.25Z" fill="#486472"/>
<path fill-rule="evenodd" clip-rule="evenodd" d="M6.3852 17.25C4.034 17.25 1.91967 18.6815 1.04646 20.8645L0.852233 21.3501C0.392428 22.4996 1.23901 23.75 2.47707 23.75H21.523C22.7611 23.75 23.6076 22.4996 23.1478 21.3501L22.8106 20.5069C22.0237 18.5398 20.1186 17.25 18 17.25H6.3852Z" fill="#E5E6E8"/>
<path fill-rule="evenodd" clip-rule="evenodd" d="M7.13283 14.25C6.08021 14.25 5.26578 15.1726 5.39634 16.2171L6.25584 23.093C6.30275 23.4683 6.6218 23.75 7.00004 23.75H17C17.3783 23.75 17.6973 23.4683 17.7443 23.093L18.6037 16.2171C18.7343 15.1726 17.9199 14.25 16.8673 14.25H7.13283Z" fill="#90A7B2"/>
<path fill-rule="evenodd" clip-rule="evenodd" d="M10.25 19C10.25 18.5858 10.5858 18.25 11 18.25H13C13.4142 18.25 13.75 18.5858 13.75 19C13.75 19.4142 13.4142 19.75 13 19.75H11C10.5858 19.75 10.25 19.4142 10.25 19Z" fill="#ECEFF1"/>
<path fill-rule="evenodd" clip-rule="evenodd" d="M5.24517 7.39143C5.24517 3.73262 7.98685 0.75 12 0.75C16.0132 0.75 18.7548 3.73262 18.7548 7.39143C18.7548 7.81028 18.7189 8.25326 18.651 8.70777C19.0098 9.06628 19.25 9.55047 19.25 10.1105C19.25 11.1205 18.5021 11.8518 17.6193 12.1133C17.0294 13.3955 16.2109 14.6185 15.1852 15.4879C14.8692 15.7557 14.3959 15.7166 14.1281 15.4006C13.8603 15.0846 13.8994 14.6114 14.2154 14.3436C15.1036 13.5908 15.8586 12.4394 16.3982 11.1658C16.5042 10.9158 16.7369 10.7426 17.0068 10.7129C17.5376 10.6546 17.75 10.3132 17.75 10.1105C17.75 9.96998 17.6691 9.79224 17.4443 9.65371C17.1792 9.49028 17.0427 9.17999 17.1013 8.87409C17.2037 8.33941 17.2548 7.83688 17.2548 7.39143C17.2548 4.54275 15.1665 2.25 12 2.25C8.83346 2.25 6.74517 4.54275 6.74517 7.39143C6.74517 7.83688 6.79625 8.3394 6.89872 8.87409C6.95734 9.17998 6.8208 9.49027 6.55566 9.6537C6.33092 9.79223 6.25 9.96997 6.25 10.1105C6.25 10.3132 6.46243 10.6546 6.99318 10.7129C7.26307 10.7426 7.49585 10.9158 7.60178 11.1658C8.14139 12.4394 8.89643 13.5908 9.78463 14.3436C10.1006 14.6114 10.1397 15.0846 9.87187 15.4006C9.60406 15.7166 9.13079 15.7557 8.8148 15.4879C7.78906 14.6185 6.97061 13.3955 6.38068 12.1133C5.49787 11.8518 4.75 11.1205 4.75 10.1105C4.75 9.55048 4.99023 9.06628 5.34895 8.70777C5.2811 8.25326 5.24517 7.81028 5.24517 7.39143Z" fill="black"/>
<path fill-rule="evenodd" clip-rule="evenodd" d="M6.00003 18.75C4.49482 18.75 3.14124 19.6664 2.58222 21.064L2.24495 21.9072C2.17926 22.0714 2.3002 22.25 2.47707 22.25H21.523C21.6999 22.25 21.8208 22.0714 21.7551 21.9072L21.4178 21.064C20.8588 19.6664 19.5053 18.75 18 18.75V17.25C20.1186 17.25 22.0237 18.5398 22.8106 20.5069L23.1478 21.3501C23.6076 22.4996 22.7611 23.75 21.523 23.75H2.47707C1.23901 23.75 0.392428 22.4996 0.852233 21.3501L1.1895 20.5069C1.97632 18.5398 3.88146 17.25 6.00003 17.25V18.75Z" fill="black"/>
<path fill-rule="evenodd" clip-rule="evenodd" d="M9.8088 4.77478C9.5792 4.83531 9.39183 5.00099 9.30364 5.22146L9.05797 5.83563C8.71628 6.68986 7.88894 7.25 6.9689 7.25H6.5C6.08579 7.25 5.75 7.58579 5.75 8C5.75 8.41421 6.08579 8.75 6.5 8.75H6.9689C8.38642 8.75 9.67193 7.95219 10.308 6.70687L11.2097 7.42826C11.8747 7.9602 12.7008 8.25 13.5523 8.25H18C18.4142 8.25 18.75 7.91421 18.75 7.5C18.75 7.08579 18.4142 6.75 18 6.75H13.5523C13.0414 6.75 12.5457 6.57612 12.1468 6.25696L10.4685 4.91435C10.2831 4.76602 10.0384 4.71425 9.8088 4.77478Z" fill="black"/>
<path fill-rule="evenodd" clip-rule="evenodd" d="M5.39634 16.2171C5.26578 15.1726 6.08021 14.25 7.13283 14.25H16.8673C17.9199 14.25 18.7343 15.1726 18.6037 16.2171L17.7443 23.093C17.6973 23.4683 17.3783 23.75 17 23.75H7.00004C6.6218 23.75 6.30275 23.4683 6.25584 23.093L5.39634 16.2171ZM7.13283 15.75C6.98245 15.75 6.86611 15.8818 6.88476 16.031L7.66213 22.25H16.338L17.1153 16.031C17.134 15.8818 17.0176 15.75 16.8673 15.75H7.13283Z" fill="black"/>
<path fill-rule="evenodd" clip-rule="evenodd" d="M10.25 19C10.25 18.5858 10.5858 18.25 11 18.25H13C13.4142 18.25 13.75 18.5858 13.75 19C13.75 19.4142 13.4142 19.75 13 19.75H11C10.5858 19.75 10.25 19.4142 10.25 19Z" fill="black"/>
</svg>
