<svg xmlns="http://www.w3.org/2000/svg" width="48" height="48" fill="none" viewBox="0 0 24 24"><path fill="#486472" d="M6 10.25a.75.75 0 0 0-.53.22L4.348 11.59a3.75 3.75 0 0 0-1.098 2.652V15c0 .414.336.75.75.75h2.5c.181 0 .359-.022.529-.063.61-.147 1.182-.523 1.618-.81l.175-.115c.532-.344 1.876-.512 2.178-.512h2c.303 0 1.646.168 2.178.512l.175.114c.436.288 1.009.664 1.618.811.17.041.348.063.529.063H20a.75.75 0 0 0 .75-.75v-.757a3.75 3.75 0 0 0-1.098-2.652L18.53 10.47a.75.75 0 0 0-.53-.22H6Z"/><path fill="#FFDBA6" d="M12 .75c-4.013 0-6.755 2.983-6.755 6.641 0 .218.01.442.029.67.017.212.042.428.075.647a1.972 1.972 0 0 0-.599 1.402c0 1.01.748 1.742 1.63 2.003.203.44.43.87.683 1.28 1.1 1.786 2.78 3.359 4.937 3.359 2.158 0 3.837-1.573 4.937-3.359.252-.41.48-.84.682-1.28.883-.261 1.631-.992 1.631-2.002 0-.56-.24-1.045-.599-1.403.033-.22.058-.435.075-.647.02-.228.029-.452.029-.67C18.755 3.733 16.013.75 12 .75Z"/><path fill="#486472" fill-rule="evenodd" d="M18.753 7.25C18.683 3.656 15.961.75 12 .75c-3.961 0-6.684 2.906-6.754 6.5h5.148a3.75 3.75 0 0 0 3.12-1.67l.283-.424a3.75 3.75 0 0 0 3.365 2.094h1.591Z" clip-rule="evenodd"/><path fill="#FAFAFA" fill-rule="evenodd" d="m17.579 12.2-.732-.365-2.576-1.402a4.75 4.75 0 0 0-4.542 0l-2.576 1.402-.732.366c.192.409.407.81.642 1.192 1.1 1.786 2.779 3.359 4.937 3.359 2.158 0 3.837-1.573 4.936-3.359.236-.383.45-.783.643-1.192Z" clip-rule="evenodd"/><path fill="#ECEFF1" d="M6 17.25a5.181 5.181 0 0 0-4.81 3.257l-.338.843a1.75 1.75 0 0 0 1.625 2.4h19.046a1.75 1.75 0 0 0 1.625-2.4l-.337-.843A5.181 5.181 0 0 0 18 17.25H6Z"/><path fill="#90A7B2" d="M7.133 14.25a1.75 1.75 0 0 0-1.737 1.967l.86 6.876A.75.75 0 0 0 7 23.75h10a.75.75 0 0 0 .744-.657l.86-6.876a1.75 1.75 0 0 0-1.737-1.967H7.133Z"/><path fill="#000" fill-rule="evenodd" d="M5.245 7.391C5.245 3.733 7.987.75 12 .75s6.755 2.983 6.755 6.641c0 .42-.036.862-.104 1.317.359.358.599.842.599 1.402 0 1.01-.748 1.742-1.63 2.003-.59 1.283-1.41 2.505-2.435 3.375a.75.75 0 0 1-.97-1.144c.889-.753 1.644-1.905 2.183-3.178a.75.75 0 0 1 .609-.453c.53-.058.743-.4.743-.602 0-.141-.08-.319-.306-.457a.75.75 0 0 1-.343-.78 7.99 7.99 0 0 0 .154-1.483c0-2.848-2.088-5.141-5.255-5.141S6.745 4.543 6.745 7.391c0 .446.051.948.154 1.483a.75.75 0 0 1-.343.78c-.225.138-.306.316-.306.457 0 .202.212.544.743.602a.75.75 0 0 1 .609.453c.54 1.273 1.294 2.425 2.183 3.178a.75.75 0 1 1-.97 1.144c-1.026-.87-1.844-2.092-2.434-3.375-.883-.261-1.631-.992-1.631-2.002 0-.56.24-1.045.599-1.403a8.97 8.97 0 0 1-.104-1.317ZM6 18.75a3.681 3.681 0 0 0-3.418 2.314l-.337.843a.25.25 0 0 0 .232.343h19.046a.25.25 0 0 0 .232-.343l-.337-.843A3.681 3.681 0 0 0 18 18.75v-1.5a5.181 5.181 0 0 1 4.81 3.257l.338.843a1.75 1.75 0 0 1-1.625 2.4H2.477a1.75 1.75 0 0 1-1.625-2.4l.337-.843A5.181 5.181 0 0 1 6 17.25v1.5Z" clip-rule="evenodd"/><path fill="#000" fill-rule="evenodd" d="M14.1 2.757a.75.75 0 0 1 .611.506l.317.949a2.25 2.25 0 0 0 2.134 1.538h.338a.75.75 0 0 1 0 1.5h-.338a3.75 3.75 0 0 1-3.364-2.094l-.283.424a3.75 3.75 0 0 1-3.12 1.67H6.5a.75.75 0 0 1 0-1.5h3.894a2.25 2.25 0 0 0 1.873-1.002l1.109-1.664a.75.75 0 0 1 .724-.327ZM6.445 10.6a.75.75 0 0 1-.01 1.06l-1.011.993a2.25 2.25 0 0 0-.674 1.597H6.5a.75.75 0 0 0 .75-.75h1.5a2.25 2.25 0 0 1-2.25 2.25H4a.75.75 0 0 1-.75-.75v-.74a3.75 3.75 0 0 1 1.123-2.677l1.012-.993a.75.75 0 0 1 1.06.01ZM17.512 10.553a.75.75 0 0 0 .01 1.06l1.056 1.04c.428.421.67.996.672 1.597H17.5a.75.75 0 0 1-.75-.75h-1.5a2.25 2.25 0 0 0 2.25 2.25H20a.75.75 0 0 0 .75-.75v-.743a3.75 3.75 0 0 0-1.12-2.673l-1.057-1.04a.75.75 0 0 0-1.06.01Z" clip-rule="evenodd"/><path fill="#000" fill-rule="evenodd" d="M5.396 16.217a1.75 1.75 0 0 1 1.737-1.967h9.734a1.75 1.75 0 0 1 1.737 1.967l-.86 6.876a.75.75 0 0 1-.744.657H7a.75.75 0 0 1-.744-.657l-.86-6.876Zm1.737-.467a.25.25 0 0 0-.248.281l.777 6.219h8.676l.777-6.219a.25.25 0 0 0-.248-.281H7.133ZM13.554 11.75a3.25 3.25 0 0 0-3.108 0L7.86 13.16a.75.75 0 1 1-.718-1.318l2.588-1.408a4.75 4.75 0 0 1 4.542 0l2.588 1.408a.75.75 0 1 1-.718 1.318l-2.587-1.409Z" clip-rule="evenodd"/></svg>