<?xml version="1.0" encoding="UTF-8"?>
<svg version="1.1" xmlns="http://www.w3.org/2000/svg" width="661" height="377">
<path d="M0 0 C0.7719873 -0.00570007 1.54397461 -0.01140015 2.33935547 -0.01727295 C3.96629495 -0.0266604 5.5932529 -0.03323181 7.22021484 -0.03710938 C9.6536781 -0.04674113 12.08626802 -0.0777934 14.51953125 -0.109375 C29.02690278 -0.20826209 42.03415161 1.887849 55.64453125 7.0859375 C58.08733301 7.98278128 60.33595493 8.6359061 62.875 9.140625 C85.75789351 15.51782483 106.98820786 38.58252487 118.68725586 58.69970703 C132.25352103 82.84982468 136.43783182 112.28535619 129.6875 139.203125 C126.8971108 148.75360258 122.82165033 157.68510286 117.6875 166.203125 C117.17703125 167.08097656 116.6665625 167.95882812 116.140625 168.86328125 C111.77655227 176.08478255 106.54549424 182.35804064 101.00219727 188.68164062 C99.67718723 190.21505986 98.39435508 191.77745032 97.11328125 193.34765625 C95.01865689 195.81330908 92.93486161 197.95880638 90.5 200.078125 C89.82582031 200.67367187 89.15164063 201.26921875 88.45703125 201.8828125 C86.6875 203.203125 86.6875 203.203125 84.6875 203.203125 C84.6875 203.863125 84.6875 204.523125 84.6875 205.203125 C82.75390625 206.640625 82.75390625 206.640625 80.25 208.203125 C76.87743349 210.1561166 76.87743349 210.1561166 74.6875 213.203125 C80.84498078 213.28279031 86.99882974 213.30349499 93.15673828 213.27026367 C95.24987548 213.26718696 97.34310053 213.28004406 99.43603516 213.30932617 C102.45119182 213.34871658 105.46138751 213.33024831 108.4765625 213.30078125 C109.87378036 213.33764793 109.87378036 213.33764793 111.29922485 213.3752594 C115.27859966 213.28784488 117.70929876 213.19875084 120.57804871 210.27890015 C122.14293229 207.97625505 123.45385819 205.69732356 124.6875 203.203125 C125.07548264 202.43243179 125.46346527 201.66173859 125.86320496 200.86769104 C127.20969982 198.12079309 128.47062745 195.34136167 129.69726562 192.5390625 C132.07063867 187.47458291 132.07063867 187.47458291 135.1640625 186.11328125 C139.29858366 186.26048556 142.15890866 188.22950611 145.6875 190.203125 C145.03342581 198.38353231 143.17486211 206.17847342 141.25 214.140625 C140.62374076 216.75330527 140.00108091 219.36680903 139.37890625 221.98046875 C139.08516113 223.21265137 138.79141602 224.44483398 138.48876953 225.71435547 C137.59415171 229.60956836 136.81203555 233.51566053 136.09741211 237.44750977 C135.6875 239.203125 135.6875 239.203125 134.6875 240.203125 C131.52137337 240.29848742 128.37709372 240.32863136 125.21069336 240.31665039 C123.71817802 240.31686943 123.71817802 240.31686943 122.19551086 240.3170929 C118.88943338 240.31639331 115.58341146 240.30859879 112.27734375 240.30078125 C109.99190807 240.29891723 107.70647199 240.29749325 105.42103577 240.29649353 C99.39251613 240.29266707 93.36402041 240.2828357 87.33551025 240.27178955 C81.18917159 240.26157817 75.04282907 240.2569965 68.89648438 240.25195312 C56.82681238 240.24121354 44.75715818 240.2241356 32.6875 240.203125 C32.52428383 238.59804455 32.36183286 236.99288627 32.19970703 235.38769531 C32.10916046 234.49383118 32.01861389 233.59996704 31.92532349 232.67901611 C31.50690686 228.3230376 31.16315088 224.36967926 32.6875 220.203125 C34.68907763 218.29050638 36.71216255 217.06439289 39.12890625 215.71875 C42.81477859 213.53536302 45.73295937 210.66824792 48.83984375 207.7421875 C50.6875 206.203125 50.6875 206.203125 52.6875 206.203125 C53.0175 205.213125 53.3475 204.223125 53.6875 203.203125 C54.3475 203.203125 55.0075 203.203125 55.6875 203.203125 C56.02394531 202.40841797 56.02394531 202.40841797 56.3671875 201.59765625 C57.78140787 199.0328128 59.50232922 196.88668104 61.3684082 194.63720703 C81.95811243 169.73462985 88.37885599 138.93965689 87.6875 107.203125 C87.67074219 106.10484375 87.65398437 105.0065625 87.63671875 103.875 C86.60052563 78.88794308 77.22876816 53.40625238 60.5 34.765625 C43.85196022 19.59741098 25.7974959 15.2565686 3.87890625 15.79296875 C-15.08307705 16.71744876 -30.40323428 25.70790679 -43.3125 39.203125 C-61.27870051 60.11762508 -66.96111083 87.15175208 -66.75 113.953125 C-66.74662628 114.78662476 -66.74325256 115.62012451 -66.73977661 116.47888184 C-66.66613642 129.04981994 -66.18397893 141.14134184 -62.3125 153.203125 C-62.07112305 153.95851562 -61.82974609 154.71390625 -61.58105469 155.4921875 C-56.75812777 170.00343428 -49.81442629 183.80324876 -39.74609375 195.3828125 C-38.3125 197.203125 -38.3125 197.203125 -38.3125 199.203125 C-37.3225 199.533125 -36.3325 199.863125 -35.3125 200.203125 C-33.62161778 202.18269442 -31.95419528 204.18257696 -30.3125 206.203125 C-29.6525 206.533125 -28.9925 206.863125 -28.3125 207.203125 C-28.3125 207.863125 -28.3125 208.523125 -28.3125 209.203125 C-27.76722656 209.45191406 -27.22195313 209.70070313 -26.66015625 209.95703125 C-23.82873451 211.45989903 -21.33809222 213.24973313 -18.75 215.140625 C-17.79996094 215.83027344 -16.84992188 216.51992188 -15.87109375 217.23046875 C-14.60458984 218.20693359 -14.60458984 218.20693359 -13.3125 219.203125 C-12.71050781 219.615625 -12.10851562 220.028125 -11.48828125 220.453125 C-9.48916326 223.42855642 -9.96476932 226.81145615 -10.0625 230.265625 C-10.06765625 230.99845703 -10.0728125 231.73128906 -10.078125 232.48632812 C-10.15756563 237.89325627 -10.15756563 237.89325627 -11.3125 240.203125 C-24.31633566 240.2262564 -37.32016646 240.24404418 -50.32401848 240.25493717 C-56.36169026 240.26016424 -62.39934801 240.26725873 -68.43701172 240.27856445 C-74.25952417 240.28939954 -80.08202308 240.29540316 -85.90454483 240.29800224 C-88.13018126 240.29985537 -90.35581691 240.30347383 -92.5814476 240.30885506 C-95.68956882 240.3160737 -98.79763352 240.31711559 -101.90576172 240.31665039 C-102.83364502 240.32024567 -103.76152832 240.32384094 -104.7175293 240.32754517 C-105.56169403 240.3261705 -106.40585876 240.32479584 -107.27560425 240.32337952 C-108.01119505 240.32430131 -108.74678585 240.3252231 -109.50466728 240.32617283 C-111.3125 240.203125 -111.3125 240.203125 -113.3125 239.203125 C-114.22631836 236.61791992 -114.22631836 236.61791992 -115.15234375 233.18359375 C-115.6637793 231.30704102 -115.6637793 231.30704102 -116.18554688 229.39257812 C-116.54045383 228.05861749 -116.89527109 226.72463299 -117.25 225.390625 C-117.60020463 224.09941746 -117.9511087 222.80839941 -118.30273438 221.51757812 C-119.32185036 217.7501117 -120.32053215 213.97782107 -121.3125 210.203125 C-121.61687988 209.06439941 -121.92125977 207.92567383 -122.23486328 206.75244141 C-122.50927246 205.7010498 -122.78368164 204.6496582 -123.06640625 203.56640625 C-123.30818604 202.64770752 -123.54996582 201.72900879 -123.79907227 200.7824707 C-124.56875806 196.91574202 -125.00079022 194.26423909 -122.8125 190.890625 C-122.3175 190.33375 -121.8225 189.776875 -121.3125 189.203125 C-119.9925 189.533125 -118.6725 189.863125 -117.3125 190.203125 C-116.3225 188.223125 -116.3225 188.223125 -115.3125 186.203125 C-112.3125 187.203125 -112.3125 187.203125 -110.88623047 189.50390625 C-110.1652417 190.99470703 -110.1652417 190.99470703 -109.4296875 192.515625 C-108.90246094 193.59070313 -108.37523437 194.66578125 -107.83203125 195.7734375 C-107.28933594 196.90523437 -106.74664062 198.03703125 -106.1875 199.203125 C-105.10303506 201.43300842 -104.01717371 203.66221345 -102.9296875 205.890625 C-102.45128418 206.88449219 -101.97288086 207.87835938 -101.47998047 208.90234375 C-100.50990418 211.10925471 -100.50990418 211.10925471 -99.3125 212.203125 C-97.90132298 212.32522424 -96.48429541 212.38083372 -95.06811523 212.40844727 C-94.16725693 212.42839249 -93.26639862 212.44833771 -92.33824158 212.46888733 C-91.35908279 212.48559982 -90.37992401 212.50231232 -89.37109375 212.51953125 C-87.87498314 212.5507029 -87.87498314 212.5507029 -86.34864807 212.58250427 C-83.14917157 212.64811137 -79.94961018 212.70693634 -76.75 212.765625 C-74.58657961 212.80879962 -72.42316794 212.85241355 -70.25976562 212.89648438 C-64.94410126 213.00380403 -59.62835166 213.10554927 -54.3125 213.203125 C-57.51871952 209.96250542 -60.72727701 206.95838619 -64.3125 204.140625 C-65.55 203.16416016 -65.55 203.16416016 -66.8125 202.16796875 C-68.56895911 200.78750167 -70.34135894 199.42719388 -72.125 198.08203125 C-72.846875 197.46199219 -73.56875 196.84195313 -74.3125 196.203125 C-74.3125 195.543125 -74.3125 194.883125 -74.3125 194.203125 C-74.87710938 193.96980469 -75.44171875 193.73648438 -76.0234375 193.49609375 C-91.80359436 184.5827287 -102.69689996 160.66544359 -107.5222168 144.03637695 C-115.48958278 115.34508801 -112.04130723 86.05078914 -97.5625 60.078125 C-93.44651455 52.96687298 -88.4917399 46.56344157 -83.3125 40.203125 C-82.755625 39.50316406 -82.19875 38.80320313 -81.625 38.08203125 C-66.852447 20.05791087 -45.32398738 9.32929948 -23.3125 3.203125 C-21.59740234 2.67332031 -21.59740234 2.67332031 -19.84765625 2.1328125 C-13.27486569 0.40427752 -6.75888885 0.04001475 0 0 Z M-84.3125 177.203125 C-83.3125 179.203125 -83.3125 179.203125 -83.3125 179.203125 Z M-83.3125 179.203125 C-82.6525 179.863125 -81.9925 180.523125 -81.3125 181.203125 C-81.3125 180.543125 -81.3125 179.883125 -81.3125 179.203125 C-81.9725 179.203125 -82.6325 179.203125 -83.3125 179.203125 Z M71.6875 187.203125 C72.6875 189.203125 72.6875 189.203125 72.6875 189.203125 Z " fill="#F9F0E5" transform="translate(315.3125,68.796875)"/>
<path d="M0 0 C1.33333333 0.66666667 2.66666667 1.33333333 4 2 C5.0828125 2.495 5.0828125 2.495 6.1875 3 C8 4 8 4 9 6 C9.09809858 8.67751418 9.1390397 11.32309717 9.125 14 C9.12886719 14.73734375 9.13273437 15.4746875 9.13671875 16.234375 C9.1266598 21.7466804 9.1266598 21.7466804 8 24 C-5.00383566 24.0231314 -18.00766646 24.04091918 -31.01151848 24.05181217 C-37.04919026 24.05703924 -43.08684801 24.06413373 -49.12451172 24.07543945 C-54.94702417 24.08627454 -60.76952308 24.09227816 -66.59204483 24.09487724 C-68.81768126 24.09673037 -71.04331691 24.10034883 -73.2689476 24.10573006 C-76.37706882 24.1129487 -79.48513352 24.11399059 -82.59326172 24.11352539 C-83.52114502 24.11712067 -84.44902832 24.12071594 -85.4050293 24.12442017 C-86.24919403 24.1230455 -87.09335876 24.12167084 -87.96310425 24.12025452 C-88.69869505 24.12117631 -89.43428585 24.1220981 -90.19216728 24.12304783 C-92 24 -92 24 -94 23 C-93.505 21.515 -93.505 21.515 -93 20 C-93 20.66 -93 21.32 -93 22 C-60 22 -27 22 7 22 C6.67 17.38 6.34 12.76 6 8 C5.01 7.67 4.02 7.34 3 7 C3 6.34 3 5.68 3 5 C2.34 5 1.68 5 1 5 C0.505 2.525 0.505 2.525 0 0 Z " fill="#F1C4B0" transform="translate(296,285)"/>
<path d="M0 0 C0.33 0 0.66 0 1 0 C1 74.25 1 148.5 1 225 C0.67 225 0.34 225 0 225 C0 150.75 0 76.5 0 0 Z " fill="#D59C88" transform="translate(134,80)"/>
<path d="M0 0 C8.43866133 -0.84386613 15.23000991 4.57500872 21.875 9.1875 C22.56464844 9.66292236 23.25429688 10.13834473 23.96484375 10.62817383 C29.72844949 14.67010435 34.95133687 19.08483518 40 24 C36.99580359 25.0013988 34.12290635 25.51421457 31 26 C31 25.01 31 24.02 31 23 C30.34 23 29.68 23 29 23 C29 22.34 29 21.68 29 21 C28.13375 20.9071875 28.13375 20.9071875 27.25 20.8125 C24.11623724 19.68086345 23.05152607 17.59457708 21 15 C19.6564097 14.04965564 18.3063242 13.10564093 16.91015625 12.234375 C14.32631523 10.56465361 11.85995721 8.75075773 9.375 6.9375 C7.99441406 5.93009766 7.99441406 5.93009766 6.5859375 4.90234375 C4.38114532 3.28038938 2.18597765 1.64718034 0 0 Z " fill="#ECD1C3" transform="translate(374,78)"/>
<path d="M0 0 C2.94537436 2.75452937 5.04736782 5.4499779 7.0625 8.9375 C7.54847656 9.77152344 8.03445312 10.60554687 8.53515625 11.46484375 C9.52504194 13.17800592 10.50263274 14.89832234 11.46875 16.625 C12.95657778 18.93265126 14.30826386 20.36005952 16.4375 22.0625 C19.10337939 24.25959128 21.69228748 26.41536198 24 29 C24 29.66 24 30.32 24 31 C23.34 31 22.68 31 22 31 C22 31.99 22 32.98 22 34 C21.34 34 20.68 34 20 34 C20 33.34 20 32.68 20 32 C19.43667969 31.76796875 18.87335938 31.5359375 18.29296875 31.296875 C8.74663524 25.89758586 2.52666419 14.14435983 -3 5 C-2.34 4.67 -1.68 4.34 -1 4 C-1 4.66 -1 5.32 -1 6 C-0.01 6 0.98 6 2 6 C1.34 4.02 0.68 2.04 0 0 Z " fill="#F8E0D2" transform="translate(221,231)"/>
<path d="M0 0 C1 3 1 3 -0.21484375 5.91796875 C-0.78332031 6.99691406 -1.35179687 8.07585937 -1.9375 9.1875 C-2.50339844 10.27417969 -3.06929688 11.36085937 -3.65234375 12.48046875 C-4.09707031 13.31191406 -4.54179687 14.14335937 -5 15 C-5.66 15 -6.32 15 -7 15 C-7 15.66 -7 16.32 -7 17 C-8.6222454 18.70993434 -10.29413425 20.37347684 -12 22 C-12.515625 22.556875 -13.03125 23.11375 -13.5625 23.6875 C-16.26788268 26.15763201 -18.33924368 27 -22 27 C-22.33 28.32 -22.66 29.64 -23 31 C-24.32 31.33 -25.64 31.66 -27 32 C-26.505 30.515 -26.505 30.515 -26 29 C-25.34 29 -24.68 29 -24 29 C-23.67128906 28.22076172 -23.67128906 28.22076172 -23.3359375 27.42578125 C-21.1113687 23.38643265 -18.07193587 19.96135052 -15.1640625 16.39648438 C-11.99132132 12.44349026 -9.41076483 8.46162875 -7 4 C-6.67 4.66 -6.34 5.32 -6 6 C-6.33 6.99 -6.66 7.98 -7 9 C-4.04070881 6.24479785 -1.96318174 3.53372712 0 0 Z M-8 13 C-7 15 -7 15 -7 15 Z " fill="#F4D2BF" transform="translate(395,243)"/>
<path d="M0 0 C0.33 0 0.66 0 1 0 C1.18175781 0.71285156 1.36351562 1.42570313 1.55078125 2.16015625 C3.23429207 8.63763331 3.23429207 8.63763331 5.625 14.875 C8.03835489 20.35989748 8.27126578 25.77892105 8.5625 31.6875 C8.6042334 32.5218457 8.6459668 33.35619141 8.68896484 34.21582031 C9.96839306 61.94546865 9.96839306 61.94546865 8 75 C7.01 75.495 7.01 75.495 6 76 C6.0721875 74.94683594 6.144375 73.89367187 6.21875 72.80859375 C6.84973283 63.19452612 7.22026539 53.6392331 7 44 C6.98324219 42.90816406 6.96648437 41.81632812 6.94921875 40.69140625 C6.46886162 29.03931462 3.38424138 17.83603851 0.35888672 6.62402344 C-0.13518034 4.75976033 -0.57368807 2.88091396 -1 1 C-0.67 0.67 -0.34 0.34 0 0 Z " fill="#F1CBB7" transform="translate(396,132)"/>
<path d="M0 0 C8.47142804 -0.8471428 15.18792311 4.57939691 22 9 C21.01 9.33 20.02 9.66 19 10 C19 10.66 19 11.32 19 12 C19.598125 12.2475 20.19625 12.495 20.8125 12.75 C23.28647521 14.16370012 24.43370255 15.65055383 26 18 C23.19652117 16.68471147 20.81846385 15.21008363 18.375 13.3125 C14.42661638 10.29575746 10.38122662 7.44241016 6.296875 4.61328125 C4.16478663 3.11574299 2.0750388 1.57531615 0 0 Z " fill="#EBC0AE" transform="translate(374,78)"/>
<path d="M0 0 C3 4 3 4 9 15 C23.85 15.33 38.7 15.66 54 16 C53.505 14.515 53.505 14.515 53 13 C54.32 13.66 55.64 14.32 57 15 C57 15.66 57 16.32 57 17 C50.07661048 17.05063836 43.15326859 17.08570749 36.22973633 17.10986328 C33.87359838 17.11993155 31.51747296 17.13358706 29.16137695 17.15087891 C25.77812614 17.17509076 22.39504028 17.18647478 19.01171875 17.1953125 C17.42722176 17.21079636 17.42722176 17.21079636 15.81071472 17.22659302 C14.82992447 17.22674408 13.84913422 17.22689514 12.83862305 17.22705078 C11.97480515 17.231492 11.11098724 17.23593323 10.22099304 17.24050903 C8 17 8 17 5 15 C5 13.68 5 12.36 5 11 C4.34 11 3.68 11 3 11 C3 9.68 3 8.36 3 7 C2.34 7 1.68 7 1 7 C0.67 4.69 0.34 2.38 0 0 Z " fill="#EFC9B7" transform="translate(207,266)"/>
<path d="M0 0 C1.31534494 3.65857532 0.65468309 6.08026481 -0.4375 9.75 C-0.72496094 10.73484375 -1.01242187 11.7196875 -1.30859375 12.734375 C-1.53675781 13.48203125 -1.76492188 14.2296875 -2 15 C-2.66 15 -3.32 15 -4 15 C-4 15.66 -4 16.32 -4 17 C-2.68 16.67 -1.36 16.34 0 16 C-0.33 17.98 -0.66 19.96 -1 22 C-1.66 21.67 -2.32 21.34 -3 21 C-3.33773438 21.5775 -3.67546875 22.155 -4.0234375 22.75 C-4.69246094 23.86375 -4.69246094 23.86375 -5.375 25 C-5.81585938 25.7425 -6.25671875 26.485 -6.7109375 27.25 C-7.13632812 27.8275 -7.56171875 28.405 -8 29 C-8.66 29 -9.32 29 -10 29 C-8.78419902 21.9483543 -6.35210138 15.82430583 -3.4375 9.33203125 C-2.11093276 6.2571349 -1.00737434 3.19163313 0 0 Z " fill="#F9E6D7" transform="translate(398,223)"/>
<path d="M0 0 C0.33 0.66 0.66 1.32 1 2 C-0.37337958 5.18045798 -1.9721855 7.95962411 -3.9375 10.8125 C-6.45420322 14.70195044 -8.18968321 18.75043007 -10 23 C-10.33 23.66 -10.66 24.32 -11 25 C-11.66 25 -12.32 25 -13 25 C-13.33 25.99 -13.66 26.98 -14 28 C-14.33 27.34 -14.66 26.68 -15 26 C-13.89271303 23.4043273 -12.72781374 20.94062349 -11.4375 18.4375 C-11.07197021 17.71747803 -10.70644043 16.99745605 -10.32983398 16.25561523 C-4.01992333 4.01992333 -4.01992333 4.01992333 0 0 Z " fill="#F3D4C0" transform="translate(226,117)"/>
<path d="M0 0 C0.33 0 0.66 0 1 0 C3.30198787 14.31316653 1.77444027 27.88008078 -1 42 C-1.33 42 -1.66 42 -2 42 C-1.86105852 38.89548451 -1.712657 35.79149165 -1.5625 32.6875 C-1.52318359 31.80642578 -1.48386719 30.92535156 -1.44335938 30.01757812 C-1.40146484 29.17001953 -1.35957031 28.32246094 -1.31640625 27.44921875 C-1.27974854 26.66893311 -1.24309082 25.88864746 -1.20532227 25.0847168 C-1 23 -1 23 0 20 C0.08106686 18.44578271 0.10756898 16.88832973 0.09765625 15.33203125 C0.09443359 14.43935547 0.09121094 13.54667969 0.08789062 12.62695312 C0.07951172 11.69818359 0.07113281 10.76941406 0.0625 9.8125 C0.05798828 8.87212891 0.05347656 7.93175781 0.04882812 6.96289062 C0.03704626 4.64186288 0.02059558 2.32096356 0 0 Z " fill="#EBC1AE" transform="translate(446,166)"/>
<path d="M0 0 C1.45880109 0.14107747 2.91703551 0.28802415 4.375 0.4375 C5.59316406 0.55931641 5.59316406 0.55931641 6.8359375 0.68359375 C9 1 9 1 11 2 C11 2.66 11 3.32 11 4 C11.7425 3.7525 12.485 3.505 13.25 3.25 C16 3 16 3 18.3125 4.8125 C20 7 20 7 20 9 C21.32 9.33 22.64 9.66 24 10 C24.33 11.32 24.66 12.64 25 14 C24.24976563 13.55269531 23.49953125 13.10539062 22.7265625 12.64453125 C16.93082455 9.22110417 11.12531481 5.96176886 5.05859375 3.04296875 C3 2 3 2 0 0 Z " fill="#F5D4C0" transform="translate(348,86)"/>
<path d="M0 0 C0.33 1.32 0.66 2.64 1 4 C-0.65 4.33 -2.3 4.66 -4 5 C-4.042721 6.66611905 -4.04063832 8.33382885 -4 10 C-3.67 10.33 -3.34 10.66 -3 11 C-2.76472227 13.34987262 -2.58613583 15.70556039 -2.4375 18.0625 C-2.35371094 19.35285156 -2.26992187 20.64320313 -2.18359375 21.97265625 C-2.12300781 22.97167969 -2.06242188 23.97070312 -2 25 C-4.05449993 21.9182501 -4.74475809 19.6904243 -5.625 16.125 C-6.01558594 14.58199219 -6.01558594 14.58199219 -6.4140625 13.0078125 C-7.74906367 6.15480649 -7.74906367 6.15480649 -5.5 2.6875 C-5.005 2.130625 -4.51 1.57375 -4 1 C-2.68 1.33 -1.36 1.66 0 2 C0 1.34 0 0.68 0 0 Z " fill="#F3CFBB" transform="translate(198,257)"/>
<path d="M0 0 C-0.33 1.32 -0.66 2.64 -1 4 C-1.66 4 -2.32 4 -3 4 C-2.67 4.99 -2.34 5.98 -2 7 C-6.625 10 -6.625 10 -10 10 C-10.33 11.32 -10.66 12.64 -11 14 C-12.32 14.33 -13.64 14.66 -15 15 C-14.67 14.01 -14.34 13.02 -14 12 C-13.34 12 -12.68 12 -12 12 C-11.773125 11.46375 -11.54625 10.9275 -11.3125 10.375 C-8.99382562 6.1793035 -5.31058613 0 0 0 Z " fill="#F4D8C7" transform="translate(383,260)"/>
<path d="M0 0 C3.48354375 5.22531563 4.30934332 10.8131337 4 17 C4.66 17 5.32 17 6 17 C7.79275866 20.11910856 8.34290718 22.67682428 8.625 26.25 C8.69976562 27.14203125 8.77453125 28.0340625 8.8515625 28.953125 C8.90054688 29.62859375 8.94953125 30.3040625 9 31 C6.66891498 28.1659406 5.40532896 25.74655754 4.39453125 22.2265625 C4.13349609 21.3190625 3.87246094 20.4115625 3.60351562 19.4765625 C3.34248047 18.53554687 3.08144531 17.59453125 2.8125 16.625 C2.40354492 15.22507813 2.40354492 15.22507813 1.98632812 13.796875 C0.65733043 9.09375533 -0.37162534 4.93848782 0 0 Z " fill="#F1CCB9" transform="translate(205,196)"/>
<path d="M0 0 C0.66 0 1.32 0 2 0 C1.36810218 7.02350796 0.05780811 13.70455725 -1.5625 20.5625 C-1.79646484 21.57119141 -2.03042969 22.57988281 -2.27148438 23.61914062 C-2.84308715 26.08053217 -3.4193354 28.54073347 -4 31 C-4.33 31 -4.66 31 -5 31 C-5 27.04 -5 23.08 -5 19 C-4.34 19 -3.68 19 -3 19 C-3.04125 17.9275 -3.0825 16.855 -3.125 15.75 C-3.00255952 12.07678568 -2.58959682 11.08568794 -1 8 C-0.5311656 5.33640239 -0.26945451 2.69454509 0 0 Z " fill="#F2CBB5" transform="translate(459,259)"/>
<path d="M0 0 C3 1 3 1 4.16796875 2.77734375 C4.50441406 3.49019531 4.84085938 4.20304687 5.1875 4.9375 C5.53167969 5.64777344 5.87585938 6.35804688 6.23046875 7.08984375 C7 9 7 9 7 11 C6.34 11 5.68 11 5 11 C4.67 10.34 4.34 9.68 4 9 C2.0085944 8.61866701 0.00720923 8.28674418 -2 8 C-2.66 7.67 -3.32 7.34 -4 7 C-3.67 6.34 -3.34 5.68 -3 5 C-2.34 5.33 -1.68 5.66 -1 6 C-1.020625 5.195625 -1.04125 4.39125 -1.0625 3.5625 C-1 1 -1 1 0 0 Z " fill="#F8DFD0" transform="translate(200,255)"/>
<path d="M0 0 C0 0.66 0 1.32 0 2 C-1.98 2.99 -1.98 2.99 -4 4 C-4 4.66 -4 5.32 -4 6 C-6.90600261 7.25664978 -8.79604584 8 -12 8 C-12.9590625 8.7734375 -12.9590625 8.7734375 -13.9375 9.5625 C-14.618125 10.036875 -15.29875 10.51125 -16 11 C-18.12890625 10.58984375 -18.12890625 10.58984375 -20 10 C-14.66122709 5.84762107 -7.01157033 0 0 0 Z " fill="#F4D0BE" transform="translate(276,78)"/>
<path d="M0 0 C1.33333333 0.66666667 2.66666667 1.33333333 4 2 C5.0828125 2.495 5.0828125 2.495 6.1875 3 C8 4 8 4 9 6 C9.07181821 8.71760108 9.09299506 11.40859388 9.0625 14.125 C9.05798828 14.87910156 9.05347656 15.63320313 9.04882812 16.41015625 C9.03703499 18.27347127 9.01909942 20.13674555 9 22 C8.67 22 8.34 22 8 22 C8 17.38 8 12.76 8 8 C6.35 7.67 4.7 7.34 3 7 C3 6.34 3 5.68 3 5 C2.34 5 1.68 5 1 5 C0.67 3.35 0.34 1.7 0 0 Z " fill="#F2C8B7" transform="translate(296,285)"/>
<path d="M0 0 C6.4899741 5.56283494 8.51988742 15.92665867 10 24 C8.046875 23.3515625 8.046875 23.3515625 6 22 C5.390625 19.3984375 5.390625 19.3984375 5.25 16.375 C5.19328125 15.37210938 5.1365625 14.36921875 5.078125 13.3359375 C5.05234375 12.56507813 5.0265625 11.79421875 5 11 C4.01 10.67 3.02 10.34 2 10 C2 8.02 2 6.04 2 4 C1.34 4 0.68 4 0 4 C0 2.68 0 1.36 0 0 Z " fill="#F2D0BE" transform="translate(434,130)"/>
<path d="M0 0 C3.04516202 2.83332467 5.16868601 5.65500311 7.25 9.25 C7.77078125 10.14203125 8.2915625 11.0340625 8.828125 11.953125 C9.21484375 12.62859375 9.6015625 13.3040625 10 14 C6.15625 12.328125 6.15625 12.328125 4.75 9.375 C4.5025 8.59125 4.255 7.8075 4 7 C3.34 7.66 2.68 8.32 2 9 C2.3185177 11.10820797 2.3185177 11.10820797 3 13 C-0.08089673 10.22719294 -1.68775452 7.93673644 -3 4 C-2.34 4 -1.68 4 -1 4 C-1 4.66 -1 5.32 -1 6 C-0.01 6 0.98 6 2 6 C1.34 4.02 0.68 2.04 0 0 Z " fill="#E2C2B2" transform="translate(221,231)"/>
<path d="M0 0 C6.14830711 1.20555041 8.35248219 2.91558124 12 8 C11.2575 7.979375 10.515 7.95875 9.75 7.9375 C7.29537721 7.99328688 5.33890739 8.3069904 3 9 C3.33 8.01 3.66 7.02 4 6 C3.34 5.38125 2.68 4.7625 2 4.125 C0 2 0 2 0 0 Z " fill="#F7DCCC" transform="translate(402,95)"/>
<path d="M0 0 C2.21406567 3.3210985 3.6084831 6.74762256 5.0625 10.4375 C5.33126953 11.10587891 5.60003906 11.77425781 5.87695312 12.46289062 C7.12576352 15.60515916 8.31287661 18.68314513 9 22 C8.01 21.67 7.02 21.34 6 21 C5.05078125 19.00390625 5.05078125 19.00390625 4.3125 16.5625 C3.93544922 15.35787109 3.93544922 15.35787109 3.55078125 14.12890625 C3 12 3 12 3 10 C2.01 9.67 1.02 9.34 0 9 C0 6.03 0 3.06 0 0 Z " fill="#F3D1BC" transform="translate(252,222)"/>
<path d="M0 0 C7.30696249 0.45965708 13.99757448 1.88329723 21 4 C21 4.33 21 4.66 21 5 C16.10554488 5.1957782 12.59331035 4.59359747 8 3 C5.33602009 2.56003236 2.68793476 2.27806222 0 2 C0 1.34 0 0.68 0 0 Z " fill="#F1CBB9" transform="translate(346,70)"/>
<path d="M0 0 C0.66 0.33 1.32 0.66 2 1 C1.54625 1.598125 1.0925 2.19625 0.625 2.8125 C-0.63295913 4.50590652 -1.82984724 6.24477086 -3 8 C-3.66 7.67 -4.32 7.34 -5 7 C-5.2475 7.639375 -5.495 8.27875 -5.75 8.9375 C-7 11 -7 11 -9.125 11.75 C-10.053125 11.87375 -10.053125 11.87375 -11 12 C-9.55928394 8.58301375 -7.76769435 6.68041215 -4.9375 4.3125 C-3.86822266 3.40951172 -3.86822266 3.40951172 -2.77734375 2.48828125 C-1.89755859 1.75158203 -1.89755859 1.75158203 -1 1 C-0.67 0.67 -0.34 0.34 0 0 Z " fill="#F3D0BE" transform="translate(247,94)"/>
<path d="M0 0 C3.81936528 1.55603771 6.26044438 3.95604931 9 7 C9 7.66 9 8.32 9 9 C8.34 9 7.68 9 7 9 C7 9.99 7 10.98 7 12 C6.34 12 5.68 12 5 12 C5 11.34 5 10.68 5 10 C4.01 9.67 3.02 9.34 2 9 C2.99 8.34 3.98 7.68 5 7 C4.175 6.030625 3.35 5.06125 2.5 4.0625 C0 1 0 1 0 0 Z " fill="#E2C1B1" transform="translate(236,253)"/>
<path d="M0 0 C0.66 0.33 1.32 0.66 2 1 C-0.64 4.3 -3.28 7.6 -6 11 C-7.32 10.34 -8.64 9.68 -10 9 C-6.7 6.03 -3.4 3.06 0 0 Z " fill="#F2CFBD" transform="translate(366,275)"/>
<path d="M0 0 C1.10452257 3.76878627 0.68900462 5.96494449 -0.4375 9.75 C-0.72496094 10.73484375 -1.01242187 11.7196875 -1.30859375 12.734375 C-1.65083984 13.85585937 -1.65083984 13.85585937 -2 15 C-2.66 15 -3.32 15 -4 15 C-4.33 15.99 -4.66 16.98 -5 18 C-6 16 -6 16 -4.78515625 12.3046875 C-4.21866415 10.82514342 -3.64408111 9.34867819 -3.0625 7.875 C-2.77181641 7.12089844 -2.48113281 6.36679688 -2.18164062 5.58984375 C-1.46125002 3.72391398 -0.73149596 1.8616042 0 0 Z " fill="#F3CDBA" transform="translate(398,223)"/>
<path d="M0 0 C1 3 1 3 -0.21484375 5.91796875 C-0.78332031 6.99691406 -1.35179687 8.07585937 -1.9375 9.1875 C-2.50339844 10.27417969 -3.06929688 11.36085937 -3.65234375 12.48046875 C-4.09707031 13.31191406 -4.54179687 14.14335937 -5 15 C-5.66 15 -6.32 15 -7 15 C-6.68383092 8.83470299 -3.50784939 4.82731567 0 0 Z " fill="#DFB7A6" transform="translate(395,243)"/>
<path d="M0 0 C5.11723176 3.19826985 9.52692892 6.95834187 14 11 C10.2773511 11 9.32537571 10.01462741 6.4375 7.75 C5.65246094 7.14671875 4.86742187 6.5434375 4.05859375 5.921875 C2.03074052 4.02869893 1.0412689 2.54407319 0 0 Z " fill="#DDB9A9" transform="translate(386,84)"/>
<path d="M0 0 C2.00720923 0.28674418 4.0085944 0.61866701 6 1 C6 3 6 3 3.6875 5.5625 C1 8 1 8 -2 9 C-2 8.34 -2 7.68 -2 7 C-1.34 7 -0.68 7 0 7 C0.33 5.68 0.66 4.36 1 3 C-0.98 3.99 -0.98 3.99 -3 5 C-1.125 1.125 -1.125 1.125 0 0 Z " fill="#E4BDAB" transform="translate(382,257)"/>
<path d="M0 0 C1 2 1 2 0.1875 5.4375 C-1 9 -1 9 -3 12 C-3.99 12 -4.98 12 -6 12 C-4.43358249 7.69235185 -2.31663844 3.93828536 0 0 Z " fill="#F4D3C3" transform="translate(442,268)"/>
<path d="M0 0 C1.80411967 2.75924185 2.0127245 3.88972103 1.625 7.25 C1.41875 8.1575 1.2125 9.065 1 10 C-1 8.75 -1 8.75 -3 7 C-3 5.68 -3 4.36 -3 3 C-2.34 3 -1.68 3 -1 3 C-0.67 2.01 -0.34 1.02 0 0 Z " fill="#F8E5D5" transform="translate(246,259)"/>
<path d="M0 0 C0.33 0 0.66 0 1 0 C1.53160457 2.41474617 2.05054766 4.83108107 2.5625 7.25 C2.71396484 7.93191406 2.86542969 8.61382812 3.02148438 9.31640625 C3.75233495 12.81769038 4.32203546 15.60298173 3 19 C0.51955685 15.27933528 0.55618827 12.13459526 0.375 7.8125 C0.33632812 7.06291016 0.29765625 6.31332031 0.2578125 5.54101562 C0.16371784 3.69440801 0.08077681 1.8472381 0 0 Z " fill="#EEC7AF" transform="translate(248,202)"/>
<path d="M0 0 C0.99 0.33 1.98 0.66 3 1 C0.03 5.95 0.03 5.95 -3 11 C-3.66 9.68 -4.32 8.36 -5 7 C-4.01 7 -3.02 7 -2 7 C-1.855625 6.030625 -1.71125 5.06125 -1.5625 4.0625 C-1 1 -1 1 0 0 Z " fill="#F4D6C3" transform="translate(430,234)"/>
<path d="M0 0 C0.99 0.33 1.98 0.66 3 1 C2.32829194 4.8063457 1.27253436 8.35206816 0 12 C-0.33 12 -0.66 12 -1 12 C-1.08159574 7.83861737 -0.98248524 4.0527516 0 0 Z " fill="#F2D2BE" transform="translate(441,208)"/>
<path d="M0 0 C3.37462715 0.54723683 5.08235 1.0549 8 3 C7.67 3.99 7.34 4.98 7 6 C3.535 4.02 3.535 4.02 0 2 C0 1.34 0 0.68 0 0 Z " fill="#F8DECD" transform="translate(393,88)"/>
<path d="M0 0 C0.66 0.66 1.32 1.32 2 2 C1.625 4.625 1.625 4.625 1 7 C0.34 7 -0.32 7 -1 7 C-1.33 8.65 -1.66 10.3 -2 12 C-3.12377697 8.69564916 -2.89554742 6.9493138 -1.5625 3.75 C-1.27503906 3.04359375 -0.98757812 2.3371875 -0.69140625 1.609375 C-0.46324219 1.07828125 -0.23507813 0.5471875 0 0 Z " fill="#F3D0BC" transform="translate(210,146)"/>
<path d="M0 0 C0 0.66 0 1.32 0 2 C-1.98 2.99 -1.98 2.99 -4 4 C-4 4.66 -4 5.32 -4 6 C-5.65 6.66 -7.3 7.32 -9 8 C-8.3125 5.125 -8.3125 5.125 -7 2 C-4.50858315 0.62972073 -2.83598698 0 0 0 Z " fill="#F6DDCB" transform="translate(276,78)"/>
<path d="M0 0 C6.625 0.75 6.625 0.75 10 3 C10 3.66 10 4.32 10 5 C2.42857143 3.14285714 2.42857143 3.14285714 0 0 Z " fill="#F8DBCB" transform="translate(254,275)"/>
<path d="M0 0 C6.625 0.625 6.625 0.625 10 4 C6.37 3.67 2.74 3.34 -1 3 C-0.67 2.01 -0.34 1.02 0 0 Z " fill="#F3C9B7" transform="translate(449,255)"/>
<path d="M0 0 C1.32 0.33 2.64 0.66 4 1 C1.03 3.475 1.03 3.475 -2 6 C-2.33 5.01 -2.66 4.02 -3 3 C-2.01 2.67 -1.02 2.34 0 2 C0 1.34 0 0.68 0 0 Z " fill="#F3D5C0" transform="translate(404,265)"/>
<path d="M0 0 C2.9375 0.375 2.9375 0.375 6 1 C6.33 1.66 6.66 2.32 7 3 C6.2575 2.979375 5.515 2.95875 4.75 2.9375 C2.29537721 2.99328688 0.33890739 3.3069904 -2 4 C-1.34 2.68 -0.68 1.36 0 0 Z " fill="#F8E5D8" transform="translate(407,100)"/>
<path d="M0 0 C2.31 0 4.62 0 7 0 C4.94766315 2.2477975 3.99332739 3.0022242 1 4 C0.67 2.68 0.34 1.36 0 0 Z " fill="#F6E1CB" transform="translate(387,277)"/>
<path d="M0 0 C1.65 1.65 3.3 3.3 5 5 C3.35 5.33 1.7 5.66 0 6 C-0.66 5.01 -1.32 4.02 -2 3 C-1.34 2.67 -0.68 2.34 0 2 C0 1.34 0 0.68 0 0 Z " fill="#ECC7B1" transform="translate(231,248)"/>
<path d="M0 0 C3.3 0.33 6.6 0.66 10 1 C10 1.33 10 1.66 10 2 C3.375 2.25 3.375 2.25 0 0 Z " fill="#FAD5C5" transform="translate(197,375)"/>
<path d="M0 0 C-4.455 0.495 -4.455 0.495 -9 1 C-9 0.67 -9 0.34 -9 0 C-5.32431536 -0.91892116 -3.83619425 -0.95904856 0 0 Z " fill="#FAD5CA" transform="translate(456,376)"/>
<path d="M0 0 C0 0.99 0 1.98 0 3 C-2 4.6875 -2 4.6875 -4 6 C-2.84826645 3.53199953 -1.95216435 1.95216435 0 0 Z " fill="#E7C3B3" transform="translate(500,346)"/>
<path d="M0 0 C0.33 0 0.66 0 1 0 C0.67 2.97 0.34 5.94 0 9 C-0.95904856 5.16380575 -0.91892116 3.67568464 0 0 Z " fill="#F2CBBE" transform="translate(517,308)"/>
<path d="M0 0 C2.29013653 3.4352048 2.17842973 4.985331 2 9 C1.67 9 1.34 9 1 9 C0.67 6.03 0.34 3.06 0 0 Z " fill="#F6D0C0" transform="translate(516,60)"/>
<path d="M0 0 C0.66 0.33 1.32 0.66 2 1 C0.68 1.99 -0.64 2.98 -2 4 C-2.66 3.67 -3.32 3.34 -4 3 C-2.68 2.01 -1.36 1.02 0 0 Z " fill="#EECBB5" transform="translate(475,366)"/>
<path d="M0 0 C0.33 0 0.66 0 1 0 C1 2.97 1 5.94 1 9 C0.67 9 0.34 9 0 9 C0 6.03 0 3.06 0 0 Z " fill="#A77060" transform="translate(518,255)"/>
<path d="M0 0 C-2.35438733 1.42944945 -3.48032433 2.08661261 -6.25 1.625 C-6.8275 1.41875 -7.405 1.2125 -8 1 C-5.07175348 0.02391783 -3.04386724 -0.08226668 0 0 Z " fill="#F9DCCD" transform="translate(204,0)"/>
<path d="M0 0 C0.66 0.33 1.32 0.66 2 1 C1.01 1.99 0.02 2.98 -1 4 C-1.66 3.67 -2.32 3.34 -3 3 C-2.01 2.01 -1.02 1.02 0 0 Z " fill="#EAC2B8" transform="translate(486,359)"/>
<path d="M0 0 C1.32 1.32 2.64 2.64 4 4 C3.01 4.495 3.01 4.495 2 5 C1.34 3.35 0.68 1.7 0 0 Z " fill="#EBC7BC" transform="translate(148,341)"/>
<path d="M0 0 C0.33 0 0.66 0 1 0 C1 2.64 1 5.28 1 8 C0.67 8 0.34 8 0 8 C0 5.36 0 2.72 0 0 Z " fill="#A7705C" transform="translate(518,128)"/>
<path d="M0 0 C0.33 0 0.66 0 1 0 C1 2.64 1 5.28 1 8 C0.67 8 0.34 8 0 8 C0 5.36 0 2.72 0 0 Z " fill="#FAE0D2" transform="translate(518,69)"/>
<path d="M0 0 C0.66 0.33 1.32 0.66 2 1 C0.68 2.32 -0.64 3.64 -2 5 C-1.34 3.35 -0.68 1.7 0 0 Z " fill="#EBCAB5" transform="translate(150,31)"/>
<path d="M0 0 C0.66 0.33 1.32 0.66 2 1 C1.01 1.99 0.02 2.98 -1 4 C-1.66 3.67 -2.32 3.34 -3 3 C-2.01 2.01 -1.02 1.02 0 0 Z " fill="#EEC7BC" transform="translate(169,13)"/>
<path d="M0 0 C0.66 0.33 1.32 0.66 2 1 C0.68 1.99 -0.64 2.98 -2 4 C-1.34 2.68 -0.68 1.36 0 0 Z " fill="#E7C0B6" transform="translate(491,355)"/>
<path d="M0 0 C0.33 0 0.66 0 1 0 C1 2.31 1 4.62 1 7 C0.67 7 0.34 7 0 7 C0 4.69 0 2.38 0 0 Z " fill="#FCE1D7" transform="translate(518,301)"/>
<path d="M0 0 C0.33 0 0.66 0 1 0 C1 2.31 1 4.62 1 7 C0.67 7 0.34 7 0 7 C0 4.69 0 2.38 0 0 Z " fill="#A7705D" transform="translate(518,120)"/>
<path d="M0 0 C0.99 0.99 1.98 1.98 3 3 C2.67 3.66 2.34 4.32 2 5 C1.34 3.35 0.68 1.7 0 0 Z " fill="#EDCDB8" transform="translate(509,43)"/>
<path d="M0 0 C0.66 0 1.32 0 2 0 C2.66 1.32 3.32 2.64 4 4 C3.01 3.67 2.02 3.34 1 3 C0.67 2.01 0.34 1.02 0 0 Z " fill="#E2BBAB" transform="translate(495,24)"/>
<path d="M0 0 C2.97 0.495 2.97 0.495 6 1 C5.01 1.33 4.02 1.66 3 2 C2.01 1.34 1.02 0.68 0 0 Z " fill="#E6BC9F" transform="translate(459,3)"/>
<path d="M0 0 C0.99 0.33 1.98 0.66 3 1 C1.02 1.33 -0.96 1.66 -3 2 C-2.01 1.34 -1.02 0.68 0 0 Z " fill="#E8C1B0" transform="translate(193,2)"/>
<path d="M0 0 C2.97 0.495 2.97 0.495 6 1 C5.01 1.33 4.02 1.66 3 2 C2.01 1.34 1.02 0.68 0 0 Z " fill="#F1C9C0" transform="translate(453,1)"/>
<path d="M0 0 C2.475 0.495 2.475 0.495 5 1 C4.01 1.33 3.02 1.66 2 2 C1.34 1.34 0.68 0.68 0 0 Z " fill="#EFCFBE" transform="translate(180,369)"/>
<path d="M0 0 C1.98 0.99 1.98 0.99 4 2 C3.01 2 2.02 2 1 2 C0.67 1.34 0.34 0.68 0 0 Z " fill="#E7BBAA" transform="translate(166,360)"/>
<path d="M0 0 C0.33 0 0.66 0 1 0 C1 1.98 1 3.96 1 6 C0.67 6 0.34 6 0 6 C0 4.02 0 2.04 0 0 Z " fill="#A7705D" transform="translate(518,271)"/>
<path d="M0 0 C0.99 0.495 0.99 0.495 2 1 C1.67 1.99 1.34 2.98 1 4 C0.67 2.68 0.34 1.36 0 0 Z " fill="#E7B8AE" transform="translate(139,324)"/>
<path d="M0 0 C0.33 0 0.66 0 1 0 C1 1.65 1 3.3 1 5 C0.67 5 0.34 5 0 5 C0 3.35 0 1.7 0 0 Z " fill="#A66F5D" transform="translate(518,228)"/>
<path d="M0 0 C0.33 0 0.66 0 1 0 C1 1.65 1 3.3 1 5 C0.67 5 0.34 5 0 5 C0 3.35 0 1.7 0 0 Z " fill="#A7715C" transform="translate(518,222)"/>
<path d="M0 0 C0.33 0 0.66 0 1 0 C1 1.65 1 3.3 1 5 C0.67 5 0.34 5 0 5 C0 3.35 0 1.7 0 0 Z " fill="#A7715D" transform="translate(518,216)"/>
<path d="M0 0 C0.33 0 0.66 0 1 0 C1 1.65 1 3.3 1 5 C0.67 5 0.34 5 0 5 C0 3.35 0 1.7 0 0 Z " fill="#A76E5C" transform="translate(518,201)"/>
<path d="M0 0 C0.33 0 0.66 0 1 0 C1 1.65 1 3.3 1 5 C0.67 5 0.34 5 0 5 C0 3.35 0 1.7 0 0 Z " fill="#A7705C" transform="translate(518,177)"/>
<path d="M0 0 C0.66 0.33 1.32 0.66 2 1 C1.01 1.66 0.02 2.32 -1 3 C-0.67 2.01 -0.34 1.02 0 0 Z " fill="#F5D8CE" transform="translate(156,24)"/>
<path d="M0 0 C0.99 0.33 1.98 0.66 3 1 C2.67 1.66 2.34 2.32 2 3 C1.34 2.01 0.68 1.02 0 0 Z " fill="#EBCFC5" transform="translate(491,20)"/>
<path d="M0 0 C0.99 0.33 1.98 0.66 3 1 C1.68 1.33 0.36 1.66 -1 2 C-0.67 1.34 -0.34 0.68 0 0 Z " fill="#F0DCCE" transform="translate(179,7)"/>
<path d="M0 0 C1.65 0 3.3 0 5 0 C5 0.33 5 0.66 5 1 C3.35 1 1.7 1 0 1 C0 0.67 0 0.34 0 0 Z " fill="#FFD0C1" transform="translate(448,0)"/>
<path d="M0 0 C0.99 0.33 1.98 0.66 3 1 C2.01 1 1.02 1 0 1 C0 0.67 0 0.34 0 0 Z " fill="#F0C7BB" transform="translate(162,357)"/>
<path d="M0 0 C0 3 0 3 0 3 Z " fill="#EBC8BE" transform="translate(510,331)"/>
<path d="M0 0 C0.99 0.495 0.99 0.495 2 1 C1.67 1.66 1.34 2.32 1 3 C0.67 2.01 0.34 1.02 0 0 Z " fill="#F4D1C6" transform="translate(142,331)"/>
<path d="M0 0 C1 4 1 4 1 4 Z " fill="#F2D2C0" transform="translate(137,317)"/>
<path d="M0 0 C1 4 1 4 1 4 Z " fill="#A66F5E" transform="translate(518,281)"/>
<path d="M0 0 C1 4 1 4 1 4 Z " fill="#A7715D" transform="translate(518,162)"/>
<path d="M0 0 C1 4 1 4 1 4 Z " fill="#EDD4C1" transform="translate(137,56)"/>
<path d="M0 0 C0.99 0.495 0.99 0.495 2 1 C1.67 1.66 1.34 2.32 1 3 C0.67 2.01 0.34 1.02 0 0 Z " fill="#E0A99B" transform="translate(502,32)"/>
<path d="M0 0 C0.99 0.33 1.98 0.66 3 1 C2.01 1 1.02 1 0 1 C0 0.67 0 0.34 0 0 Z " fill="#E7C3BB" transform="translate(488,18)"/>
<path d="M0 0 C0.99 0.33 1.98 0.66 3 1 C2.01 1 1.02 1 0 1 C0 0.67 0 0.34 0 0 Z " fill="#E3C1A6" transform="translate(473,8)"/>
<path d="M0 0 C3 1 3 1 3 1 Z " fill="#EDC6B1" transform="translate(456,374)"/>
<path d="M0 0 C3 1 3 1 3 1 Z " fill="#E3CBAA" transform="translate(194,374)"/>
<path d="M0 0 C3 1 3 1 3 1 Z " fill="#E4B49E" transform="translate(459,373)"/>
<path d="M0 0 C3 1 3 1 3 1 Z " fill="#E1AF9A" transform="translate(188,372)"/>
<path d="M0 0 C0.66 0.66 1.32 1.32 2 2 C1.34 2 0.68 2 0 2 C0 1.34 0 0.68 0 0 Z " fill="#F2D1BF" transform="translate(155,350)"/>
<path d="" fill="#FCD6CD" transform="translate(0,0)"/>
<path d="" fill="#EEE2DE" transform="translate(0,0)"/>
<path d="" fill="#A87361" transform="translate(0,0)"/>
<path d="" fill="#A8725E" transform="translate(0,0)"/>
<path d="" fill="#A7715D" transform="translate(0,0)"/>
<path d="" fill="#A76F5D" transform="translate(0,0)"/>
<path d="" fill="#A7705C" transform="translate(0,0)"/>
<path d="" fill="#A8705C" transform="translate(0,0)"/>
<path d="" fill="#A7705C" transform="translate(0,0)"/>
<path d="" fill="#A86F5B" transform="translate(0,0)"/>
<path d="" fill="#D69B85" transform="translate(0,0)"/>
<path d="" fill="#F0E1DC" transform="translate(0,0)"/>
<path d="" fill="#FCD4C8" transform="translate(0,0)"/>
<path d="" fill="#ECCEA3" transform="translate(0,0)"/>
<path d="M0 0 C0.66 0.66 1.32 1.32 2 2 C1.34 2 0.68 2 0 2 C0 1.34 0 0.68 0 0 Z " fill="#F5C5B1" transform="translate(485,15)"/>
<path d="M0 0 C3 1 3 1 3 1 Z " fill="#E0C092" transform="translate(187,4)"/>
<path d="M0 0 C2 1 2 1 2 1 Z " fill="#DEB69B" transform="translate(191,373)"/>
<path d="M0 0 C2 1 2 1 2 1 Z " fill="#E5AA95" transform="translate(463,372)"/>
<path d="M0 0 C2 1 2 1 2 1 Z " fill="#F7D6BD" transform="translate(468,370)"/>
<path d="M0 0 C2 1 2 1 2 1 Z " fill="#F1B7A4" transform="translate(177,367)"/>
<path d="M0 0 C2 1 2 1 2 1 Z " fill="#EFBFA9" transform="translate(175,366)"/>
<path d="M0 0 C2 1 2 1 2 1 Z " fill="#FAD3BE" transform="translate(481,363)"/>
<path d="" fill="#F0BFB8" transform="translate(0,0)"/>
<path d="" fill="#FAE9DC" transform="translate(0,0)"/>
<path d="" fill="#E7BFB6" transform="translate(0,0)"/>
<path d="" fill="#F1A49E" transform="translate(0,0)"/>
<path d="" fill="#F6C5AE" transform="translate(0,0)"/>
<path d="" fill="#FFEDDA" transform="translate(0,0)"/>
<path d="" fill="#ECBEAD" transform="translate(0,0)"/>
<path d="" fill="#D5AC8B" transform="translate(0,0)"/>
<path d="" fill="#F5C6A9" transform="translate(0,0)"/>
<path d="" fill="#A7705D" transform="translate(0,0)"/>
<path d="" fill="#A8725C" transform="translate(0,0)"/>
<path d="" fill="#A7705D" transform="translate(0,0)"/>
<path d="" fill="#A8705C" transform="translate(0,0)"/>
<path d="" fill="#A8705C" transform="translate(0,0)"/>
<path d="" fill="#A7705C" transform="translate(0,0)"/>
<path d="" fill="#A7705C" transform="translate(0,0)"/>
<path d="" fill="#A7705C" transform="translate(0,0)"/>
<path d="" fill="#A7705C" transform="translate(0,0)"/>
<path d="" fill="#A86F5B" transform="translate(0,0)"/>
<path d="" fill="#D6AE90" transform="translate(0,0)"/>
<path d="" fill="#F1C5AD" transform="translate(0,0)"/>
<path d="" fill="#EFD8CD" transform="translate(0,0)"/>
<path d="" fill="#EAD1C6" transform="translate(0,0)"/>
<path d="" fill="#FFEDE3" transform="translate(0,0)"/>
<path d="" fill="#F4DAD3" transform="translate(0,0)"/>
<path d="" fill="#CAB0A8" transform="translate(0,0)"/>
<path d="" fill="#F8C3B4" transform="translate(0,0)"/>
<path d="" fill="#EFC6BA" transform="translate(0,0)"/>
<path d="" fill="#F7E7DF" transform="translate(0,0)"/>
<path d="" fill="#E0C8C2" transform="translate(0,0)"/>
<path d="M0 0 C2 1 2 1 2 1 Z " fill="#FCD6BF" transform="translate(483,14)"/>
<path d="M0 0 C2 1 2 1 2 1 Z " fill="#FFE6DC" transform="translate(480,12)"/>
<path d="M0 0 C2 1 2 1 2 1 Z " fill="#E4B7A4" transform="translate(173,11)"/>
<path d="M0 0 C2 1 2 1 2 1 Z " fill="#E1B29C" transform="translate(476,10)"/>
<path d="M0 0 C2 1 2 1 2 1 Z " fill="#EFD8CD" transform="translate(176,9)"/>
<path d="M0 0 C2 1 2 1 2 1 Z " fill="#E5BBB3" transform="translate(471,7)"/>
<path d="M0 0 C2 1 2 1 2 1 Z " fill="#FFEFCD" transform="translate(469,6)"/>
<path d="M0 0 C2 1 2 1 2 1 Z " fill="#FFF1CF" transform="translate(182,6)"/>
<path d="M0 0 C2 1 2 1 2 1 Z " fill="#E3AF99" transform="translate(465,5)"/>
<path d="" fill="#FFCCCC" transform="translate(0,0)"/>
<path d="" fill="#FFD8C4" transform="translate(0,0)"/>
<path d="" fill="#E1BCB4" transform="translate(0,0)"/>
<path d="" fill="#F4C3B3" transform="translate(0,0)"/>
<path d="" fill="#FFD5D5" transform="translate(0,0)"/>
<path d="" fill="#FFD8C4" transform="translate(0,0)"/>
<path d="" fill="#FFE6CC" transform="translate(0,0)"/>
<path d="" fill="#FFDBC8" transform="translate(0,0)"/>
<path d="" fill="#DEAD94" transform="translate(0,0)"/>
<path d="" fill="#D5BFAA" transform="translate(0,0)"/>
<path d="" fill="#E9BCA6" transform="translate(0,0)"/>
<path d="" fill="#FFDBC8" transform="translate(0,0)"/>
<path d="" fill="#EEBBAA" transform="translate(0,0)"/>
<path d="" fill="#FFFFFF" transform="translate(0,0)"/>
<path d="" fill="#EBC4B1" transform="translate(0,0)"/>
<path d="" fill="#B69292" transform="translate(0,0)"/>
<path d="" fill="#F0B4A5" transform="translate(0,0)"/>
<path d="" fill="#DBB6B6" transform="translate(0,0)"/>
<path d="" fill="#E1AB8D" transform="translate(0,0)"/>
<path d="" fill="#E7B295" transform="translate(0,0)"/>
<path d="" fill="#FFE3C6" transform="translate(0,0)"/>
<path d="" fill="#C8A69B" transform="translate(0,0)"/>
<path d="" fill="#FFD0D0" transform="translate(0,0)"/>
<path d="" fill="#FFE3E3" transform="translate(0,0)"/>
<path d="" fill="#FFD8CE" transform="translate(0,0)"/>
<path d="" fill="#F1B8AA" transform="translate(0,0)"/>
<path d="" fill="#FFBFBF" transform="translate(0,0)"/>
<path d="" fill="#FFD5D5" transform="translate(0,0)"/>
<path d="" fill="#E8B9A2" transform="translate(0,0)"/>
<path d="" fill="#9B6959" transform="translate(0,0)"/>
<path d="" fill="#9F6F5B" transform="translate(0,0)"/>
<path d="" fill="#A87463" transform="translate(0,0)"/>
<path d="" fill="#A6715F" transform="translate(0,0)"/>
<path d="" fill="#A66F5E" transform="translate(0,0)"/>
<path d="" fill="#A8705C" transform="translate(0,0)"/>
<path d="" fill="#A8705C" transform="translate(0,0)"/>
<path d="" fill="#A76F5D" transform="translate(0,0)"/>
<path d="" fill="#A8705C" transform="translate(0,0)"/>
<path d="" fill="#A7715D" transform="translate(0,0)"/>
<path d="" fill="#A8705C" transform="translate(0,0)"/>
<path d="" fill="#A8725C" transform="translate(0,0)"/>
<path d="" fill="#A86F60" transform="translate(0,0)"/>
<path d="" fill="#A67360" transform="translate(0,0)"/>
<path d="" fill="#FFFFFF" transform="translate(0,0)"/>
<path d="" fill="#E4BCA1" transform="translate(0,0)"/>
<path d="" fill="#FFFFFF" transform="translate(0,0)"/>
<path d="" fill="#F5CCB8" transform="translate(0,0)"/>
<path d="" fill="#E3BDAA" transform="translate(0,0)"/>
<path d="" fill="#FFD5CA" transform="translate(0,0)"/>
<path d="" fill="#FFCCCC" transform="translate(0,0)"/>
<path d="" fill="#F6C1B9" transform="translate(0,0)"/>
<path d="" fill="#E8AF9C" transform="translate(0,0)"/>
<path d="" fill="#FFE1D2" transform="translate(0,0)"/>
<path d="" fill="#FFCC99" transform="translate(0,0)"/>
<path d="" fill="#EDB6A4" transform="translate(0,0)"/>
<path d="" fill="#CC9999" transform="translate(0,0)"/>
<path d="" fill="#F5C2B8" transform="translate(0,0)"/>
<path d="" fill="#EBC4B1" transform="translate(0,0)"/>
<path d="" fill="#EBBEA3" transform="translate(0,0)"/>
<path d="" fill="#F5CCB8" transform="translate(0,0)"/>
<path d="" fill="#E8C5AE" transform="translate(0,0)"/>
<path d="" fill="#D5AAAA" transform="translate(0,0)"/>
<path d="" fill="#CA9A88" transform="translate(0,0)"/>
<path d="" fill="#E4B59A" transform="translate(0,0)"/>
<path d="" fill="#FFDDCC" transform="translate(0,0)"/>
<path d="" fill="#FFFFFF" transform="translate(0,0)"/>
<path d="" fill="#FFBFBF" transform="translate(0,0)"/>
<path d="" fill="#D9A197" transform="translate(0,0)"/>
<path d="" fill="#FFFFFF" transform="translate(0,0)"/>
</svg>
